<svg width="62" height="46" viewBox="0 0 62 46" fill="none" xmlns="http://www.w3.org/2000/svg">
<path d="M31 0.335938C33.6679 0.336013 35.8311 2.49904 35.8311 5.16699C35.831 6.49372 35.2956 7.69534 34.4297 8.56836L41.6943 21.2871C41.7874 21.4395 41.9361 21.5501 42.1084 21.5967C42.1854 21.6315 42.269 21.6494 42.3535 21.6494C42.4381 21.6494 42.5216 21.6316 42.5986 21.5967L50.875 16.6348C50.5709 16.0022 50.4004 15.2928 50.4004 14.5439C50.4006 11.8761 52.5636 9.71387 55.2314 9.71387C57.8992 9.71399 60.0623 11.8762 60.0625 14.5439C60.0625 17.045 58.1613 19.102 55.7256 19.3496L51.4082 40.9199C51.2001 41.9457 50.6443 42.8686 49.835 43.5322C49.0255 44.1958 48.0115 44.5596 46.9648 44.5625H15.0342C13.9877 44.5595 12.9744 44.1956 12.165 43.5322C11.3555 42.8686 10.799 41.9458 10.5908 40.9199L6.28613 19.3486C3.85672 19.0949 1.96289 17.0405 1.96289 14.5439C1.96307 11.8761 4.12606 9.71387 6.79395 9.71387C9.46173 9.71399 11.6248 11.8762 11.625 14.5439C11.625 15.2792 11.4589 15.9758 11.165 16.5996L19.4004 21.5967C19.4774 21.6316 19.561 21.6494 19.6455 21.6494C19.7302 21.6494 19.8145 21.6316 19.8916 21.5967C20.0638 21.55 20.2117 21.4393 20.3047 21.2871L27.5693 8.56738C26.704 7.69443 26.169 6.49329 26.1689 5.16699C26.1689 2.499 28.332 0.335938 31 0.335938Z" fill="url(#paint0_linear_23_8515)"/>
<defs>
<linearGradient id="paint0_linear_23_8515" x1="31.0127" y1="0.335937" x2="31.0127" y2="44.5625" gradientUnits="userSpaceOnUse">
<stop stop-color="#FFF700"/>
<stop offset="1" stop-color="#FF871F"/>
</linearGradient>
</defs>
</svg>
