<svg width="60" height="60" viewBox="0 0 60 60" fill="none" xmlns="http://www.w3.org/2000/svg">
<path fill-rule="evenodd" clip-rule="evenodd" d="M30.2325 56.5865C51.751 47.4505 55.0047 31.3827 53.8626 10.5473C53.8134 9.65095 53.1229 8.93883 52.2286 8.86205C46.8002 8.39609 39.6666 6.7989 30.0195 4.07058C29.6866 3.97639 29.3782 3.97639 29.0453 4.07058C19.3981 6.79893 12.2645 8.39609 6.83604 8.86208C5.9418 8.9388 5.25134 9.65085 5.20213 10.547C4.0372 31.7502 7.3974 47.4916 28.8324 56.5866C29.2966 56.7838 29.7683 56.7838 30.2325 56.5865ZM21.1856 26.1776H21.8985V21.1234C21.8985 16.9206 25.327 13.4922 29.5298 13.4922C33.7327 13.4922 37.161 16.9206 37.161 21.1234V26.1776H37.8741C38.6193 26.1776 39.2291 26.7873 39.2291 27.5326V41.0827C39.2291 41.828 38.6193 42.4377 37.8741 42.4377H21.1856C20.4403 42.4377 19.8306 41.828 19.8306 41.0827V27.5326C19.8306 26.7873 20.4403 26.1776 21.1856 26.1776ZM24.7893 26.1776H34.2703V21.1234C34.2703 18.5162 32.1371 16.3829 29.5299 16.3829C26.9225 16.3829 24.7893 18.5161 24.7893 21.1234V26.1776ZM29.5298 29.3867C31.0528 29.3867 32.2874 30.6214 32.2874 32.1444C32.2874 33.0844 31.817 33.9143 31.0988 34.4122V37.6596C31.0988 38.5225 30.3928 39.2286 29.5298 39.2286C28.6669 39.2286 27.9608 38.5225 27.9608 37.6596V34.4122C27.2427 33.9144 26.7722 33.0844 26.7722 32.1444C26.7722 30.6214 28.0068 29.3867 29.5298 29.3867Z" fill="#E82D2E"/>
</svg>
