<svg width="13" height="13" viewBox="0 0 13 13" fill="none" xmlns="http://www.w3.org/2000/svg">
<g clip-path="url(#clip0_480_3135)">
<path fill-rule="evenodd" clip-rule="evenodd" d="M13.0001 6.50004C13.0001 8.22956 12.319 9.87348 11.0962 11.0962C9.87348 12.319 8.22956 13.0001 6.50004 13.0001C4.77051 13.0001 3.1266 12.319 1.90385 11.0962C0.681078 9.87348 0 8.22956 0 6.50004C0 4.77051 0.681081 3.1266 1.90385 1.90385C3.1266 0.681078 4.77051 0 6.50004 0C8.22956 0 9.87348 0.681081 11.0962 1.90385C12.319 3.1266 13.0001 4.77051 13.0001 6.50004ZM9.83932 2.33768C8.8961 1.57953 7.72467 1.16415 6.50004 1.16415C5.07978 1.16415 3.73106 1.72281 2.72693 2.72693C1.72281 3.73106 1.16415 5.07978 1.16415 6.50004C1.16415 7.72467 1.57953 8.8961 2.33768 9.83932L9.83932 2.33768ZM10.6624 3.16076L3.16076 10.6624C4.10397 11.4206 5.2754 11.8359 6.50004 11.8359C7.92029 11.8359 9.26902 11.2773 10.2731 10.2731C11.2773 9.26902 11.8359 7.92029 11.8359 6.50004C11.8359 5.2754 11.4205 4.10397 10.6624 3.16076Z" fill="white"/>
</g>
<defs>
<clipPath id="clip0_480_3135">
<rect width="13" height="13" fill="white"/>
</clipPath>
</defs>
</svg>
