<svg width="16" height="16" viewBox="0 0 16 16" fill="none" xmlns="http://www.w3.org/2000/svg">
<g filter="url(#filter0_i_474_2864)">
<circle cx="8" cy="8" r="8" fill="#04AB53"/>
</g>
<circle cx="8" cy="8" r="7" stroke="#008F44" stroke-width="2"/>
<path d="M8.07081 11.3322C7.53992 11.3322 7.07609 11.2499 6.67933 11.0854C6.28256 10.9152 5.96961 10.6599 5.74049 10.3196C5.51696 9.9792 5.39402 9.54807 5.37166 9.02617C5.36608 8.79359 5.36328 8.54399 5.36328 8.27737C5.36328 8.01075 5.36608 7.75547 5.37166 7.51155C5.39402 7.001 5.51975 6.57554 5.74887 6.23517C5.98358 5.88913 6.29932 5.63102 6.69609 5.46084C7.09845 5.29066 7.55669 5.20557 8.07081 5.20557C8.43964 5.20557 8.78332 5.25095 9.10185 5.34171C9.42597 5.4268 9.71377 5.56011 9.96524 5.74164C10.2167 5.9175 10.4151 6.13874 10.5604 6.40536C10.7057 6.6663 10.7811 6.97263 10.7867 7.32434C10.7867 7.3754 10.7672 7.41795 10.728 7.45198C10.6945 7.48602 10.6526 7.50304 10.6023 7.50304H9.18568C9.10185 7.50304 9.04038 7.48602 9.00126 7.45198C8.96214 7.41795 8.92861 7.35838 8.90067 7.27329C8.82803 7.02936 8.72185 6.86485 8.58214 6.77976C8.44243 6.69467 8.27199 6.65212 8.07081 6.65212C7.82493 6.65212 7.62934 6.72019 7.48404 6.85634C7.33874 6.98681 7.26051 7.2194 7.24933 7.55409C7.23257 8.01926 7.23257 8.49577 7.24933 8.98363C7.26051 9.31832 7.33874 9.55374 7.48404 9.68989C7.62934 9.82036 7.82493 9.8856 8.07081 9.8856C8.27199 9.8856 8.44243 9.84022 8.58214 9.74945C8.72744 9.65869 8.83361 9.49701 8.90067 9.26443C8.92303 9.17367 8.95376 9.1141 8.99288 9.08574C9.03759 9.0517 9.10185 9.03468 9.18568 9.03468H10.6023C10.6526 9.03468 10.6945 9.0517 10.728 9.08574C10.7672 9.11977 10.7867 9.16232 10.7867 9.21338C10.7811 9.56509 10.7057 9.87425 10.5604 10.1409C10.4151 10.4018 10.2167 10.6231 9.96524 10.8046C9.71377 10.9804 9.42597 11.1138 9.10185 11.2045C8.78332 11.2896 8.43964 11.3322 8.07081 11.3322Z" fill="white"/>
<defs>
<filter id="filter0_i_474_2864" x="0" y="0" width="16" height="20" filterUnits="userSpaceOnUse" color-interpolation-filters="sRGB">
<feFlood flood-opacity="0" result="BackgroundImageFix"/>
<feBlend mode="normal" in="SourceGraphic" in2="BackgroundImageFix" result="shape"/>
<feColorMatrix in="SourceAlpha" type="matrix" values="0 0 0 0 0 0 0 0 0 0 0 0 0 0 0 0 0 0 127 0" result="hardAlpha"/>
<feOffset dy="4"/>
<feGaussianBlur stdDeviation="2"/>
<feComposite in2="hardAlpha" operator="arithmetic" k2="-1" k3="1"/>
<feColorMatrix type="matrix" values="0 0 0 0 0 0 0 0 0 0 0 0 0 0 0 0 0 0 0.25 0"/>
<feBlend mode="normal" in2="shape" result="effect1_innerShadow_474_2864"/>
</filter>
</defs>
</svg>
