<svg width="16" height="16" viewBox="0 0 16 16" fill="none" xmlns="http://www.w3.org/2000/svg">
<g filter="url(#filter0_i_474_2904)">
<circle cx="8" cy="8" r="8" fill="#FF3435"/>
</g>
<circle cx="8" cy="8" r="7" stroke="#D3191A" stroke-width="2"/>
<path d="M7.49977 12.2074C7.43656 12.2074 7.37967 12.1821 7.32911 12.1316C7.27854 12.0873 7.25325 12.0304 7.25325 11.9609V11.3067C6.76022 11.2371 6.34935 11.1076 6.02066 10.9179C5.69197 10.7283 5.44229 10.5007 5.27162 10.2353C5.10728 9.96346 5.02195 9.68217 5.01562 9.39141C5.01562 9.33452 5.03459 9.28711 5.07251 9.24918C5.11044 9.21126 5.15785 9.19229 5.21474 9.19229H6.72229C6.81079 9.19229 6.88032 9.2081 6.93088 9.2397C6.98145 9.26499 7.03518 9.30291 7.09207 9.35348C7.14264 9.42301 7.20585 9.48938 7.2817 9.55259C7.36387 9.60948 7.46501 9.65689 7.58511 9.69481C7.7052 9.72642 7.84427 9.74222 8.00229 9.74222C8.29306 9.74222 8.51745 9.70429 8.67548 9.62844C8.8335 9.54627 8.91251 9.43565 8.91251 9.29659C8.91251 9.18913 8.86827 9.10064 8.77977 9.03111C8.6976 8.96158 8.55538 8.89837 8.35311 8.84148C8.15083 8.78459 7.87587 8.72454 7.52822 8.66133C7.0415 8.57916 6.62116 8.45906 6.26718 8.30104C5.91321 8.13669 5.6414 7.91862 5.45177 7.64681C5.26846 7.36869 5.17681 7.02736 5.17681 6.62281C5.17681 6.09185 5.36328 5.64622 5.73622 5.28592C6.10916 4.91931 6.61483 4.68543 7.25325 4.58429V3.92059C7.25325 3.85106 7.27854 3.79417 7.32911 3.74992C7.37967 3.69936 7.43656 3.67407 7.49977 3.67407H8.46688C8.53641 3.67407 8.5933 3.69936 8.63755 3.74992C8.68812 3.79417 8.7134 3.85106 8.7134 3.92059V4.61274C9.16219 4.69491 9.53513 4.83713 9.83222 5.03941C10.1356 5.24168 10.3663 5.46923 10.5244 5.72207C10.6887 5.96859 10.774 6.20563 10.7804 6.43318C10.7804 6.49007 10.7582 6.54064 10.714 6.58489C10.6761 6.62281 10.6318 6.64178 10.5813 6.64178H8.99785C8.92199 6.64178 8.85562 6.62913 8.79874 6.60385C8.74817 6.57857 8.70076 6.53748 8.65651 6.48059C8.62491 6.3921 8.5459 6.31308 8.41948 6.24355C8.29306 6.17402 8.13187 6.13926 7.93592 6.13926C7.72101 6.13926 7.55666 6.17718 7.44288 6.25304C7.32911 6.32257 7.27222 6.42686 7.27222 6.56592C7.27222 6.66074 7.30698 6.74291 7.37651 6.81244C7.44604 6.88197 7.5693 6.94518 7.74629 7.00207C7.92328 7.05264 8.1698 7.10953 8.48585 7.17274C9.08634 7.26123 9.5699 7.38765 9.93651 7.552C10.3095 7.71634 10.5813 7.93126 10.7519 8.19674C10.9226 8.46222 11.0079 8.79407 11.0079 9.19229C11.0079 9.57155 10.9099 9.90973 10.714 10.2068C10.5244 10.4976 10.2557 10.7346 9.90807 10.9179C9.56674 11.1012 9.16851 11.2277 8.7134 11.2972V11.9609C8.7134 12.0304 8.68812 12.0873 8.63755 12.1316C8.5933 12.1821 8.53641 12.2074 8.46688 12.2074H7.49977Z" fill="#F5F3F3"/>
<defs>
<filter id="filter0_i_474_2904" x="0" y="0" width="16" height="20" filterUnits="userSpaceOnUse" color-interpolation-filters="sRGB">
<feFlood flood-opacity="0" result="BackgroundImageFix"/>
<feBlend mode="normal" in="SourceGraphic" in2="BackgroundImageFix" result="shape"/>
<feColorMatrix in="SourceAlpha" type="matrix" values="0 0 0 0 0 0 0 0 0 0 0 0 0 0 0 0 0 0 127 0" result="hardAlpha"/>
<feOffset dy="4"/>
<feGaussianBlur stdDeviation="2"/>
<feComposite in2="hardAlpha" operator="arithmetic" k2="-1" k3="1"/>
<feColorMatrix type="matrix" values="0 0 0 0 0 0 0 0 0 0 0 0 0 0 0 0 0 0 0.25 0"/>
<feBlend mode="normal" in2="shape" result="effect1_innerShadow_474_2904"/>
</filter>
</defs>
</svg>
