<svg width="16" height="15" viewBox="0 0 16 15" fill="none" xmlns="http://www.w3.org/2000/svg">
<path d="M15.7449 11.5332L9.62933 0.940686C9.28927 0.351687 8.68018 0 7.99999 0C7.31984 0 6.71071 0.351687 6.37065 0.940686L0.25507 11.5332C-0.0850233 12.1223 -0.0850233 12.8256 0.25507 13.4146C0.595163 14.0036 1.20422 14.3553 1.88441 14.3553H14.1156C14.7957 14.3553 15.4048 14.0036 15.7449 13.4146C16.085 12.8256 16.085 12.1223 15.7449 11.5332ZM14.9331 12.9459C14.7625 13.2415 14.4569 13.4179 14.1156 13.4179H1.88441C1.5431 13.4179 1.23747 13.2415 1.06685 12.9459C0.896225 12.6504 0.896225 12.2975 1.06685 12.0019L7.18249 1.4094C7.35312 1.11384 7.65874 0.937404 8.00002 0.937404C8.34127 0.937404 8.64693 1.11384 8.81755 1.4094L14.9332 12.0019C15.1038 12.2975 15.1038 12.6504 14.9331 12.9459Z" fill="#FF3435"/>
<path d="M8.46862 4.67773H7.53125V9.36466H8.46862V4.67773Z" fill="#FF3435"/>
<path d="M7.99994 10.3027C7.65534 10.3027 7.375 10.5831 7.375 10.9277C7.375 11.2723 7.65534 11.5526 7.99994 11.5526C8.3445 11.5526 8.62487 11.2723 8.62487 10.9277C8.62487 10.5831 8.34453 10.3027 7.99994 10.3027Z" fill="#FF3435"/>
</svg>
