<svg width="13" height="13" viewBox="0 0 13 13" fill="none" xmlns="http://www.w3.org/2000/svg">
<g clip-path="url(#clip0_480_3107)">
<path d="M6.44109 7.03016L8.87859 8.85828C9.05816 8.99295 9.31267 8.95659 9.44734 8.77703C9.58202 8.59747 9.54566 8.34295 9.36609 8.20828L7.10938 6.5V3.04687C7.10938 2.82242 6.92758 2.64062 6.70312 2.64062C6.47867 2.64062 6.29688 2.82242 6.29688 3.04687V6.70312C6.29688 6.838 6.35334 6.95947 6.44109 7.03016Z" fill="white"/>
<path d="M6.90685 0.40625C3.9333 0.40625 1.39404 2.55247 0.898412 5.48438L0.744037 5.25484C0.618302 5.06858 0.365615 5.01942 0.179349 5.14516C-0.0069165 5.27089 -0.0560727 5.52358 0.0696616 5.70984L0.882162 6.92859C0.94899 7.03016 1.05786 7.09658 1.17872 7.10938H1.21935C1.32701 7.10897 1.42999 7.06591 1.50576 6.98953L2.52138 5.97391C2.68002 5.81527 2.68002 5.5577 2.52138 5.39906C2.36274 5.24042 2.10518 5.24042 1.94654 5.39906L1.69466 5.65297C2.16246 2.77387 4.8756 0.819406 7.75449 1.2872C10.6334 1.755 12.5883 4.46794 12.1205 7.34703C11.7051 9.90356 9.4969 11.7817 6.90685 11.7812C5.27332 11.8109 3.72835 11.0402 2.76919 9.7175C2.63899 9.53469 2.38529 9.49183 2.20247 9.62203C2.01966 9.75223 1.9768 10.0059 2.10701 10.1888C3.21769 11.7268 5.01007 12.6248 6.90685 12.5938C10.2724 12.5938 13.0006 9.86558 13.0006 6.5C13.0006 3.13442 10.2724 0.40625 6.90685 0.40625Z" fill="white"/>
</g>
<defs>
<clipPath id="clip0_480_3107">
<rect width="13" height="13" fill="white"/>
</clipPath>
</defs>
</svg>
