<svg width="13" height="13" viewBox="0 0 13 13" fill="none" xmlns="http://www.w3.org/2000/svg">
<g filter="url(#filter0_i_500_4031)">
<circle cx="6.5" cy="6.5" r="6.5" fill="#04AB53"/>
</g>
<circle cx="6.5" cy="6.5" r="6" stroke="#008F44"/>
<path d="M6.38 10.09C6.02 10.09 5.678 10.045 5.354 9.955C5.03 9.859 4.739 9.721 4.481 9.541C4.229 9.361 4.028 9.139 3.878 8.875C3.734 8.611 3.659 8.305 3.653 7.957C3.653 7.903 3.671 7.858 3.707 7.822C3.743 7.78 3.788 7.759 3.842 7.759H5.372C5.468 7.759 5.537 7.78 5.579 7.822C5.627 7.864 5.669 7.933 5.705 8.029C5.747 8.149 5.798 8.251 5.858 8.335C5.924 8.413 6.005 8.47 6.101 8.506C6.197 8.542 6.308 8.56 6.434 8.56C6.668 8.56 6.848 8.485 6.974 8.335C7.106 8.185 7.172 7.948 7.172 7.624V5.284H4.373C4.307 5.284 4.25 5.263 4.202 5.221C4.16 5.173 4.139 5.116 4.139 5.05V3.934C4.139 3.868 4.16 3.814 4.202 3.772C4.25 3.724 4.307 3.7 4.373 3.7H8.936C9.002 3.7 9.056 3.724 9.098 3.772C9.146 3.814 9.17 3.868 9.17 3.934V7.687C9.17 8.221 9.047 8.668 8.801 9.028C8.561 9.382 8.228 9.649 7.802 9.829C7.382 10.003 6.908 10.09 6.38 10.09Z" fill="white"/>
<defs>
<filter id="filter0_i_500_4031" x="0" y="0" width="13" height="15" filterUnits="userSpaceOnUse" color-interpolation-filters="sRGB">
<feFlood flood-opacity="0" result="BackgroundImageFix"/>
<feBlend mode="normal" in="SourceGraphic" in2="BackgroundImageFix" result="shape"/>
<feColorMatrix in="SourceAlpha" type="matrix" values="0 0 0 0 0 0 0 0 0 0 0 0 0 0 0 0 0 0 127 0" result="hardAlpha"/>
<feOffset dy="2"/>
<feGaussianBlur stdDeviation="1"/>
<feComposite in2="hardAlpha" operator="arithmetic" k2="-1" k3="1"/>
<feColorMatrix type="matrix" values="0 0 0 0 0 0 0 0 0 0 0 0 0 0 0 0 0 0 0.25 0"/>
<feBlend mode="normal" in2="shape" result="effect1_innerShadow_500_4031"/>
</filter>
</defs>
</svg>
