<svg width="13" height="13" viewBox="0 0 13 13" fill="none" xmlns="http://www.w3.org/2000/svg">
<path d="M1.89648 7.04175L0.271484 11.9167H11.1048L12.7298 7.04175H1.89648Z" fill="white"/>
<path d="M2.43815 6.50008V2.97925H0.271484V10.2024L1.3819 6.87112C1.53628 6.42154 1.96148 6.50008 2.43815 6.50008Z" fill="white"/>
<path d="M11.1055 3.25004H9.48047C9.33681 3.25004 9.19903 3.19297 9.09745 3.09139C8.99587 2.98981 8.9388 2.85203 8.9388 2.70837V1.08337H4.60547V6.50004H11.1055V3.25004ZM7.3138 5.14587H5.6888C5.61697 5.14587 5.54808 5.11734 5.49729 5.06655C5.4465 5.01576 5.41797 4.94687 5.41797 4.87504C5.41797 4.80321 5.4465 4.73432 5.49729 4.68353C5.54808 4.63274 5.61697 4.60421 5.6888 4.60421H7.3138C7.38563 4.60421 7.45452 4.63274 7.50531 4.68353C7.5561 4.73432 7.58464 4.80321 7.58464 4.87504C7.58464 4.94687 7.5561 5.01576 7.50531 5.06655C7.45452 5.11734 7.38563 5.14587 7.3138 5.14587ZM8.39714 4.06254H5.6888C5.61697 4.06254 5.54808 4.03401 5.49729 3.98322C5.4465 3.93242 5.41797 3.86354 5.41797 3.79171C5.41797 3.71988 5.4465 3.65099 5.49729 3.6002C5.54808 3.54941 5.61697 3.52087 5.6888 3.52087H8.39714C8.46897 3.52087 8.53785 3.54941 8.58864 3.6002C8.63943 3.65099 8.66797 3.71988 8.66797 3.79171C8.66797 3.86354 8.63943 3.93242 8.58864 3.98322C8.53785 4.03401 8.46897 4.06254 8.39714 4.06254Z" fill="white"/>
<path d="M2.98047 1.89587H4.0638V6.50004H2.98047V1.89587Z" fill="white"/>
<path d="M9.48047 1.08337V2.70837H11.1055L9.48047 1.08337Z" fill="white"/>
</svg>
