<svg width="16" height="16" viewBox="0 0 16 16" fill="none" xmlns="http://www.w3.org/2000/svg">
<path d="M10.3097 9.38257C9.79761 9.38257 9.38086 9.79919 9.38086 10.3113C9.38086 10.8236 9.79761 11.2403 10.3097 11.2403C10.822 11.2403 11.2385 10.8236 11.2385 10.3113C11.2384 9.79919 10.8219 9.38257 10.3097 9.38257Z" fill="white"/>
<path d="M5.68095 4.75366C5.1687 4.75366 4.75195 5.17041 4.75195 5.68266C4.75208 6.19466 5.16883 6.61129 5.68095 6.61129C6.19308 6.61129 6.60958 6.19466 6.60958 5.68266C6.60958 5.17041 6.19308 4.75366 5.68095 4.75366Z" fill="white"/>
<path d="M8 0C3.58862 0 0 3.58862 0 8C0 12.4111 3.58862 16 8 16C12.4109 16 15.9993 12.4111 15.9993 8C15.9993 3.58862 12.4109 0 8 0ZM5.67988 3.75288C6.74363 3.75288 7.60938 4.61837 7.60938 5.68262C7.60938 6.74638 6.74363 7.61212 5.67988 7.61212C4.61575 7.61212 3.75012 6.74638 3.75012 5.68262C3.75012 4.61837 4.61588 3.75288 5.67988 3.75288ZM5.09325 11.614C4.99575 11.7118 4.86737 11.7607 4.7395 11.7607C4.6115 11.7607 4.48338 11.7118 4.38563 11.614C4.19025 11.4186 4.19025 11.1016 4.38563 10.9065L10.906 4.38588C11.1012 4.1905 11.4181 4.1905 11.6136 4.38588C11.809 4.58125 11.809 4.89825 11.6136 5.0935L5.09325 11.614ZM10.3091 12.241C9.24512 12.241 8.37938 11.3754 8.37938 10.3112C8.37938 9.2475 9.24512 8.38175 10.3091 8.38175C11.373 8.38175 12.2386 9.2475 12.2386 10.3112C12.2385 11.3754 11.3729 12.241 10.3091 12.241Z" fill="white"/>
</svg>
