<svg width="13" height="13" viewBox="0 0 13 13" fill="none" xmlns="http://www.w3.org/2000/svg">
<g clip-path="url(#clip0_480_3099)">
<path fill-rule="evenodd" clip-rule="evenodd" d="M9.65995 3.16982C9.65995 4.92045 8.24076 6.33963 6.49013 6.33963C4.7395 6.33963 3.32031 4.92045 3.32031 3.16982C3.32031 1.41917 4.7395 0 6.49013 0C8.24076 0 9.65995 1.41917 9.65995 3.16982Z" fill="white"/>
<path fill-rule="evenodd" clip-rule="evenodd" d="M11.7117 13C12.4128 13 12.997 12.4219 12.812 11.7456C12.5392 10.7483 11.944 9.82661 11.0802 9.09089C9.86296 8.05412 8.21206 7.47168 6.49066 7.47168C4.76927 7.47168 3.11835 8.05412 1.90114 9.09089C1.03736 9.82661 0.44218 10.7483 0.169375 11.7456C-0.0156369 12.4219 0.568489 13 1.26963 13H11.7117Z" fill="white"/>
</g>
<defs>
<clipPath id="clip0_480_3099">
<rect width="13" height="13" fill="white"/>
</clipPath>
</defs>
</svg>
