<svg width="40" height="40" viewBox="0 0 40 40" fill="none" xmlns="http://www.w3.org/2000/svg">
<path d="M23.0858 32.3828C22.2733 31.5469 21.1639 31.0781 19.9998 31.0781H19.9217C17.4529 31.0781 15.4608 33.0781 15.4608 35.5391C15.4608 38 17.4529 40 19.9217 40H19.9998C22.4686 39.9609 24.4295 37.9297 24.3904 35.4609C24.367 34.3047 23.8983 33.2031 23.0858 32.3828ZM28.3279 3.07031C26.3592 1.04688 23.5545 0.015625 19.9998 0H19.9217C17.1092 0 14.7108 0.765625 12.7889 2.28125C11.8748 3 11.0623 3.83594 10.367 4.76562C9.69513 5.67188 9.14825 6.67188 8.75763 7.73438C8.58575 8.21094 8.8045 8.73438 9.26544 8.9375L13.4764 10.7891C13.9608 11 14.5233 10.7891 14.7342 10.3047C14.742 10.2969 14.742 10.2812 14.7498 10.2734C15.1404 9.32031 15.7654 8.38281 16.6092 7.49219C17.3592 6.69531 18.4451 6.3125 19.9217 6.3125H19.9998C21.5154 6.32813 22.6483 6.72656 23.4608 7.53906C24.2811 8.36719 24.6795 9.36719 24.6795 10.6172C24.6795 11.6641 24.367 12.625 23.7264 13.5547C23.0233 14.5781 21.9842 15.7109 20.6404 16.9219C20.4217 17.125 20.2029 17.3203 20.0076 17.5156C18.8123 18.6875 17.9842 19.7734 17.492 20.8281C17.2029 21.4453 16.9842 22.2188 16.8279 23.1562C16.6639 24.2578 16.5779 25.3672 16.5779 26.4844C16.5701 27.0156 16.992 27.4453 17.5154 27.4609H17.5389H22.5545C23.0779 27.4609 23.4998 27.0469 23.5076 26.5234C23.5467 24.3906 23.7889 23.3516 23.992 22.8516C24.1873 22.3672 24.8201 21.4062 26.7186 19.5781C28.2889 18.0781 29.4608 16.6094 30.1873 15.2188C30.9373 13.7812 31.3201 12.1641 31.3201 10.4141C31.3045 7.57813 30.3045 5.10156 28.3279 3.07031Z" fill="#FF3435"/>
</svg>
