<svg width="20" height="20" viewBox="0 0 20 20" fill="none" xmlns="http://www.w3.org/2000/svg">
<path d="M9.9827 0C4.72034 0 0.409399 4.05062 0 9.19786L5.36904 11.4139C5.82384 11.103 6.37379 10.9219 6.96483 10.9219C7.01816 10.9219 7.07078 10.9234 7.12268 10.9262L9.5106 7.47094V7.42246C9.5106 5.34332 11.2051 3.65134 13.2882 3.65134C15.3712 3.65134 17.0657 5.34332 17.0657 7.42246C17.0657 9.5016 15.3712 11.1943 13.2882 11.1943C13.2593 11.1943 13.2312 11.1936 13.2024 11.1929L9.79674 13.6178C9.7989 13.6627 9.80035 13.7077 9.80035 13.7519C9.80035 15.3134 8.52818 16.5832 6.96483 16.5832C5.59248 16.5832 4.44428 15.605 4.18481 14.3102L0.344529 12.7251C1.5338 16.9226 5.39715 20 9.9827 20C15.5154 20 20 15.5223 20 10C20 4.47701 15.5154 0 9.9827 0ZM6.2775 15.1733L5.04714 14.6657C5.26481 15.1191 5.6425 15.4985 6.14343 15.7067C7.22603 16.1573 8.47441 15.6446 8.92562 14.563C9.14401 14.0396 9.14545 13.4621 8.92922 12.9373C8.71299 12.4125 8.30431 12.0033 7.78031 11.7851C7.25919 11.5691 6.70131 11.5769 6.21119 11.7616L7.48263 12.2863C8.28125 12.6186 8.65893 13.5341 8.32593 14.3313C7.99366 15.1284 7.07611 15.5056 6.2775 15.1733ZM15.8054 7.42253C15.8054 6.03715 14.6759 4.90916 13.2885 4.90916C11.9002 4.90916 10.7708 6.03715 10.7708 7.42253C10.7708 8.80791 11.9002 9.93519 13.2885 9.93519C14.6759 9.93519 15.8054 8.80791 15.8054 7.42253ZM11.4015 7.41825C11.4015 6.37583 12.2484 5.53091 13.2921 5.53091C14.3365 5.53091 15.1834 6.37583 15.1834 7.41825C15.1834 8.46068 14.3365 9.3056 13.2921 9.3056C12.2484 9.3056 11.4015 8.46068 11.4015 7.41825Z" fill="white"/>
</svg>
