<svg width="13" height="13" viewBox="0 0 13 13" fill="none" xmlns="http://www.w3.org/2000/svg">
<path d="M12.5938 4.87501C12.5941 4.92847 12.5838 4.98147 12.5636 5.03097C12.5434 5.08046 12.5136 5.12548 12.4759 5.16344L10.0384 7.60094C10.0005 7.63859 9.95547 7.66838 9.90597 7.6886C9.85647 7.70882 9.80347 7.71907 9.75001 7.71876C9.69719 7.7194 9.64475 7.70974 9.59563 7.69032C9.5208 7.65958 9.45685 7.6072 9.41198 7.53989C9.36711 7.47258 9.34335 7.3934 9.34376 7.31251V6.09376H5.68751C5.57976 6.09376 5.47643 6.05095 5.40024 5.97477C5.32406 5.89858 5.28126 5.79525 5.28126 5.68751V4.06251C5.28126 3.95476 5.32406 3.85143 5.40024 3.77524C5.47643 3.69906 5.57976 3.65626 5.68751 3.65626H9.34376V2.43751C9.34409 2.35716 9.36825 2.27872 9.41316 2.2121C9.45808 2.14548 9.52174 2.09368 9.5961 2.06324C9.67045 2.0328 9.75217 2.0251 9.8309 2.0411C9.90964 2.0571 9.98186 2.09608 10.0384 2.15313L12.4759 4.59063C12.551 4.6663 12.5933 4.76843 12.5938 4.87501ZM7.31251 6.90626H3.65626V5.68751C3.65586 5.6073 3.63172 5.52901 3.5869 5.4625C3.54208 5.39599 3.47857 5.34423 3.40438 5.31376C3.3304 5.28265 3.24886 5.27415 3.17005 5.28933C3.09124 5.30451 3.0187 5.3427 2.96157 5.39907L0.524069 7.83657C0.486417 7.87453 0.456629 7.91955 0.436412 7.96904C0.416195 8.01854 0.405948 8.07154 0.406257 8.12501C0.405948 8.17847 0.416195 8.23147 0.436412 8.28097C0.456629 8.33046 0.486417 8.37548 0.524069 8.41344L2.96157 10.8509C2.99953 10.8886 3.04455 10.9184 3.09404 10.9386C3.14354 10.9588 3.19654 10.9691 3.25001 10.9688C3.3033 10.9701 3.35617 10.959 3.40438 10.9363C3.47857 10.9058 3.54208 10.854 3.5869 10.7875C3.63172 10.721 3.65586 10.6427 3.65626 10.5625V9.34376H7.31251C7.42025 9.34376 7.52358 9.30095 7.59977 9.22477C7.67596 9.14858 7.71876 9.04525 7.71876 8.93751V7.31251C7.71876 7.20476 7.67596 7.10143 7.59977 7.02524C7.52358 6.94906 7.42025 6.90626 7.31251 6.90626Z" fill="white"/>
</svg>
