<svg width="12" height="16" viewBox="0 0 12 16" fill="none" xmlns="http://www.w3.org/2000/svg">
<path fill-rule="evenodd" clip-rule="evenodd" d="M5.99996 0C8.07518 0 9.75984 1.65921 9.75984 3.70286C9.75984 5.7474 8.07508 7.40651 5.99996 7.40651C3.92393 7.40651 2.23927 5.7473 2.23927 3.70286C2.23927 1.65911 3.92403 0 5.99996 0ZM5.99996 1.36969C4.69229 1.36969 3.63071 2.4151 3.63071 3.703C3.63071 4.99084 4.69223 6.0371 5.99996 6.0371C7.30769 6.0371 8.3692 4.99092 8.3692 3.703C8.3692 2.41516 7.30769 1.36969 5.99996 1.36969ZM0.00248632 13.4845C0.266686 10.4525 2.85301 8.0684 5.99996 8.0684C9.14691 8.0684 11.7331 10.4525 11.9974 13.4845C12.0178 13.7177 11.9159 13.9439 11.7277 14.0868C10.1402 15.2866 8.15349 16 6 16C3.8457 16 1.85979 15.2866 0.272265 14.0868C0.0841104 13.9439 -0.0178846 13.7177 0.00248632 13.4845ZM1.43716 13.2282C2.73307 14.1122 4.30574 14.6295 5.99984 14.6295C7.69393 14.6295 9.26661 14.1122 10.5625 13.2282C10.1917 11.0771 8.2882 9.43797 5.99984 9.43797C3.71067 9.43797 1.80785 11.0779 1.43716 13.2282Z" fill="white"/>
</svg>
