<svg width="13" height="13" viewBox="0 0 13 13" fill="none" xmlns="http://www.w3.org/2000/svg">
<path fill-rule="evenodd" clip-rule="evenodd" d="M6.18352 4.37841C6.85363 5.11893 7.3832 5.77812 7.77226 6.37764C6.8209 6.79077 6.09201 7.6197 5.81475 8.635C5.81416 8.62867 5.8135 8.62255 5.81277 8.61659C5.73939 8.01206 5.19753 7.79909 4.66928 7.71235C4.37505 7.66403 3.97324 7.5533 3.95577 7.19332C3.94082 6.88556 4.18967 6.69355 4.46686 6.63774C4.53356 6.62431 4.585 6.6252 4.64886 6.62053C4.95705 6.6233 5.22594 6.77947 5.3485 7.07136C5.39187 7.17478 5.5109 7.22345 5.61432 7.18006C5.71773 7.1367 5.7664 7.01766 5.72301 6.91425C5.56424 6.53611 5.23924 6.29129 4.83708 6.22992V5.98498C4.83708 5.8728 4.74613 5.78185 4.63396 5.78185C4.52178 5.78185 4.43083 5.8728 4.43083 5.98498V6.23307C4.41633 6.23548 4.40189 6.23812 4.38754 6.24102C3.91121 6.33694 3.52622 6.69937 3.55112 7.21236C3.57956 7.79863 4.09756 8.02907 4.60423 8.11225C4.92897 8.16557 5.36259 8.27607 5.40969 8.6642C5.41233 8.68593 5.41378 8.70297 5.41406 8.71551C5.42191 9.04528 5.06131 9.18366 4.78744 9.2169C4.72628 9.22431 4.67565 9.22195 4.61898 9.22617C4.27877 9.21878 3.93589 9.05125 3.84807 8.69893C3.82133 8.59026 3.71157 8.52381 3.60289 8.55055C3.49422 8.57728 3.4278 8.68705 3.45451 8.79572C3.57156 9.26514 3.96783 9.54926 4.43083 9.61607V9.86174C4.43083 9.97392 4.52178 10.0649 4.63396 10.0649C4.74613 10.0649 4.83708 9.97392 4.83708 9.86172V9.61975C5.17445 9.57838 5.54434 9.42302 5.71966 9.11526C5.70199 9.25656 5.6929 9.4005 5.6929 9.5466C5.6929 10.2804 5.92202 10.9607 6.31235 11.5201C5.8086 11.7305 5.24318 11.8445 4.64475 11.8344C1.89121 11.8808 -0.16482 9.3033 1.28047 6.76559C1.67966 6.06473 2.28819 5.28211 3.10597 4.37841C3.19352 4.40444 3.28615 4.41848 3.38197 4.41848H5.90755C6.00335 4.41848 6.09597 4.40444 6.18352 4.37841ZM9.14628 7.38296C7.95134 7.38296 6.98267 8.35164 6.98267 9.54657C6.98267 10.7415 7.95134 11.7102 9.14628 11.7102C10.3412 11.7102 11.3099 10.7415 11.3099 9.54657C11.3099 8.35161 10.3412 7.38296 9.14628 7.38296ZM10.3392 10.2348C10.2836 10.3317 10.1599 10.3651 10.0631 10.3094L9.06183 9.73134C8.9918 9.69927 8.94315 9.62861 8.94315 9.54657V8.14044C8.94315 8.02826 9.0341 7.93731 9.14628 7.93731C9.25845 7.93731 9.3494 8.02826 9.3494 8.14044V9.43031L10.2646 9.95871C10.3615 10.0144 10.3949 10.138 10.3392 10.2348ZM9.14628 6.49942C7.46344 6.49942 6.09912 7.86371 6.09912 9.54657C6.09912 11.2294 7.46341 12.5937 9.14628 12.5937C10.8291 12.5937 12.1934 11.2294 12.1934 9.54657C12.1934 7.86371 10.8291 6.49942 9.14628 6.49942ZM9.14628 12.1165C7.72704 12.1165 6.57642 10.9658 6.57642 9.54657C6.57642 8.12734 7.72707 6.97671 9.14628 6.97671C10.5655 6.97671 11.7161 8.12736 11.7161 9.54657C11.7161 10.9658 10.5655 12.1165 9.14628 12.1165ZM3.38197 4.01223H5.90755C6.21894 4.01223 6.47366 3.75746 6.47366 3.44614C6.47366 3.13475 6.21894 2.88001 5.90755 2.88001H3.38197C3.07058 2.88001 2.81584 3.13473 2.81584 3.44609C2.81586 3.75751 3.07058 4.01223 3.38197 4.01223ZM3.41704 2.47378L2.8964 1.95317C2.67014 1.72692 2.67014 1.3567 2.8964 1.13047C3.08884 0.938031 3.39345 0.905531 3.62242 1.05249C3.70748 1.10706 3.80516 1.11579 3.89849 1.07715C3.99185 1.03848 4.05475 0.963295 4.07628 0.864525C4.13331 0.603383 4.3671 0.406275 4.64475 0.40625C4.91737 0.40625 5.15515 0.598406 5.21327 0.864525C5.23483 0.963295 5.29772 1.03848 5.39108 1.07715C5.48444 1.11582 5.58209 1.10706 5.6671 1.05249C5.89204 0.908121 6.19683 0.934146 6.39312 1.13042C6.61935 1.35665 6.61935 1.72694 6.39312 1.95317L5.87249 2.47378H3.41704Z" fill="white"/>
</svg>
