<svg width="21" height="22" viewBox="0 0 21 22" fill="none" xmlns="http://www.w3.org/2000/svg">
<g filter="url(#filter0_i_2667_58463)">
<ellipse cx="10.1512" cy="12" rx="10.1512" ry="10" fill="#04AB53"/>
</g>
<path d="M19.3023 12C19.3023 16.9565 15.2194 21 10.1512 21C5.08291 21 1 16.9565 1 12C1 7.04353 5.08291 3 10.1512 3C15.2194 3 19.3023 7.04353 19.3023 12Z" stroke="#008F44" stroke-width="2"/>
<path d="M9.074 18.4C8.98067 18.4 8.89667 18.3627 8.822 18.288C8.74733 18.2227 8.71 18.1387 8.71 18.036V17.07C7.982 16.9673 7.37533 16.776 6.89 16.496C6.40467 16.216 6.036 15.88 5.784 15.488C5.54133 15.0867 5.41533 14.6713 5.406 14.242C5.406 14.158 5.434 14.088 5.49 14.032C5.546 13.976 5.616 13.948 5.7 13.948H7.926C8.05667 13.948 8.15933 13.9713 8.234 14.018C8.30867 14.0553 8.388 14.1113 8.472 14.186C8.54667 14.2887 8.64 14.3867 8.752 14.48C8.87333 14.564 9.02267 14.634 9.2 14.69C9.37733 14.7367 9.58267 14.76 9.816 14.76C10.2453 14.76 10.5767 14.704 10.81 14.592C11.0433 14.4707 11.16 14.3073 11.16 14.102C11.16 13.9433 11.0947 13.8127 10.964 13.71C10.8427 13.6073 10.6327 13.514 10.334 13.43C10.0353 13.346 9.62933 13.2573 9.116 13.164C8.39733 13.0427 7.77667 12.8653 7.254 12.632C6.73133 12.3893 6.33 12.0673 6.05 11.666C5.77933 11.2553 5.644 10.7513 5.644 10.154C5.644 9.37 5.91933 8.712 6.47 8.18C7.02067 7.63867 7.76733 7.29333 8.71 7.144V6.164C8.71 6.06133 8.74733 5.97733 8.822 5.912C8.89667 5.83733 8.98067 5.8 9.074 5.8H10.502C10.6047 5.8 10.6887 5.83733 10.754 5.912C10.8287 5.97733 10.866 6.06133 10.866 6.164V7.186C11.5287 7.30733 12.0793 7.51733 12.518 7.816C12.966 8.11467 13.3067 8.45067 13.54 8.824C13.7827 9.188 13.9087 9.538 13.918 9.874C13.918 9.958 13.8853 10.0327 13.82 10.098C13.764 10.154 13.6987 10.182 13.624 10.182H11.286C11.174 10.182 11.076 10.1633 10.992 10.126C10.9173 10.0887 10.8473 10.028 10.782 9.944C10.7353 9.81333 10.6187 9.69667 10.432 9.594C10.2453 9.49133 10.0073 9.44 9.718 9.44C9.40067 9.44 9.158 9.496 8.99 9.608C8.822 9.71067 8.738 9.86467 8.738 10.07C8.738 10.21 8.78933 10.3313 8.892 10.434C8.99467 10.5367 9.17667 10.63 9.438 10.714C9.69933 10.7887 10.0633 10.8727 10.53 10.966C11.4167 11.0967 12.1307 11.2833 12.672 11.526C13.2227 11.7687 13.624 12.086 13.876 12.478C14.128 12.87 14.254 13.36 14.254 13.948C14.254 14.508 14.1093 15.0073 13.82 15.446C13.54 15.8753 13.1433 16.2253 12.63 16.496C12.126 16.7667 11.538 16.9533 10.866 17.056V18.036C10.866 18.1387 10.8287 18.2227 10.754 18.288C10.6887 18.3627 10.6047 18.4 10.502 18.4H9.074Z" fill="white"/>
<defs>
<filter id="filter0_i_2667_58463" x="0" y="2" width="20.3008" height="24" filterUnits="userSpaceOnUse" color-interpolation-filters="sRGB">
<feFlood flood-opacity="0" result="BackgroundImageFix"/>
<feBlend mode="normal" in="SourceGraphic" in2="BackgroundImageFix" result="shape"/>
<feColorMatrix in="SourceAlpha" type="matrix" values="0 0 0 0 0 0 0 0 0 0 0 0 0 0 0 0 0 0 127 0" result="hardAlpha"/>
<feOffset dy="4"/>
<feGaussianBlur stdDeviation="2"/>
<feComposite in2="hardAlpha" operator="arithmetic" k2="-1" k3="1"/>
<feColorMatrix type="matrix" values="0 0 0 0 0 0 0 0 0 0 0 0 0 0 0 0 0 0 0.25 0"/>
<feBlend mode="normal" in2="shape" result="effect1_innerShadow_2667_58463"/>
</filter>
</defs>
</svg>
