<svg width="14" height="12" viewBox="0 0 14 12" fill="none" xmlns="http://www.w3.org/2000/svg">
<path d="M6.99191 0C4.44473 0 2.2553 1.55239 1.35589 3.76103L0.997436 3.12684C0.951419 3.04007 0.882175 2.96782 0.797446 2.91815C0.712718 2.86848 0.615844 2.84336 0.517656 2.84559C0.425735 2.84764 0.335931 2.87359 0.257087 2.92089C0.178242 2.96819 0.113073 3.03521 0.0679963 3.11535C0.0229194 3.19548 -0.000512062 3.28598 8.48778e-06 3.37792C0.000529037 3.46986 0.0249837 3.56008 0.0709651 3.63971L1.04155 5.37685C1.10902 5.49654 1.22038 5.58531 1.3521 5.62442C1.48382 5.66352 1.62558 5.6499 1.74744 5.58641L3.47354 4.70404C3.5384 4.67431 3.59658 4.63178 3.64459 4.57899C3.69259 4.52621 3.72944 4.46427 3.75291 4.39689C3.77637 4.32951 3.78598 4.25809 3.78115 4.1869C3.77632 4.11572 3.75716 4.04624 3.7248 3.98265C3.69245 3.91906 3.64758 3.86266 3.59288 3.81684C3.53818 3.77103 3.47479 3.73675 3.40651 3.71605C3.33823 3.69535 3.26647 3.68866 3.19554 3.69639C3.12461 3.70412 3.05598 3.72611 2.99376 3.76103L2.35957 4.0864C3.11792 2.31218 4.90477 1.05882 6.99191 1.05882C9.77143 1.05882 12.0048 3.26863 12.0048 6C12.0048 8.73136 9.77143 10.9412 6.99191 10.9412C4.61416 10.9412 2.63353 9.30944 2.11141 7.13603C2.0785 6.99928 1.99261 6.8812 1.87264 6.80778C1.75267 6.73435 1.60845 6.71159 1.4717 6.7445C1.33494 6.77741 1.21687 6.86329 1.14344 6.98325C1.07001 7.10322 1.04725 7.24745 1.08016 7.3842C1.71623 10.0319 4.12984 12 6.99191 12C10.3361 12 13.0636 9.31126 13.0636 6C13.0636 2.68873 10.3361 0 6.99191 0ZM7.05809 2.63603C6.9881 2.63675 6.91894 2.65134 6.85462 2.67896C6.79031 2.70658 6.73211 2.74669 6.68339 2.79695C6.63467 2.84721 6.5964 2.90663 6.57079 2.97177C6.54518 3.03691 6.53275 3.10649 6.5342 3.17647V6C6.53415 6.07942 6.55197 6.15783 6.58634 6.22943C6.6207 6.30103 6.67074 6.36397 6.73273 6.41361L8.49744 7.82538C8.55175 7.86884 8.61409 7.90117 8.68091 7.92054C8.74772 7.9399 8.81769 7.94593 8.88682 7.93825C8.95596 7.93057 9.02291 7.90934 9.08384 7.87579C9.14478 7.84223 9.19851 7.79701 9.24196 7.74269C9.28542 7.68837 9.31775 7.62602 9.3371 7.55921C9.35646 7.49239 9.36247 7.42243 9.35478 7.35329C9.3471 7.28415 9.32587 7.21721 9.29231 7.15628C9.25876 7.09535 9.21352 7.04162 9.1592 6.99817L7.59302 5.74632V3.17647C7.5945 3.10556 7.58171 3.03507 7.55542 2.9692C7.52913 2.90332 7.48987 2.8434 7.43997 2.79299C7.39008 2.74259 7.33056 2.70272 7.26496 2.67575C7.19936 2.64879 7.12901 2.63528 7.05809 2.63603Z" fill="white"/>
</svg>
