<svg width="18" height="18" viewBox="0 0 18 18" fill="none" xmlns="http://www.w3.org/2000/svg">
<path d="M15.5 4.24186C14.7756 2.70814 13.0865 1.85483 11.4087 2.20134C9.32036 -1.11901 4.18827 -0.51046 2.92465 3.19115C-1.11236 3.66434 -0.918127 9.35012 3.18591 9.51427H15.3253C16.7405 9.54495 18.0298 8.2948 17.9995 6.87523C17.9995 5.47395 16.8775 4.33063 15.5 4.24186Z" fill="#FF3435"/>
<path d="M1.6377 14.2821C1.69336 15.6824 3.69351 15.6819 3.7489 14.2821C3.7489 13.6991 2.6933 12.1709 2.6933 12.1709C2.6933 12.1709 1.6377 13.6991 1.6377 14.2821Z" fill="#FF3435"/>
<path d="M4.80444 16.921C4.86011 18.3213 6.86026 18.3208 6.91565 16.921C6.91565 16.338 5.86004 14.8098 5.86004 14.8098C5.86004 14.8098 4.80444 16.338 4.80444 16.921Z" fill="#FF3435"/>
<path d="M7.97144 14.2821C8.0271 15.6824 10.0273 15.6819 10.0826 14.2821C10.0826 13.6991 9.02704 12.1709 9.02704 12.1709C9.02704 12.1709 7.97144 13.6991 7.97144 14.2821Z" fill="#FF3435"/>
<path d="M11.1379 16.921C11.1936 18.3213 13.1938 18.3208 13.2491 16.921C13.2491 16.338 12.1935 14.8098 12.1935 14.8098C12.1935 14.8098 11.1379 16.338 11.1379 16.921Z" fill="#FF3435"/>
<path d="M14.3049 14.2821C14.3606 15.6824 16.3607 15.6819 16.4161 14.2821C16.4161 13.6991 15.3605 12.1709 15.3605 12.1709C15.3605 12.1709 14.3049 13.6991 14.3049 14.2821Z" fill="#FF3435"/>
</svg>
