<svg width="128" height="128" viewBox="0 0 128 128" fill="none" xmlns="http://www.w3.org/2000/svg">
<g clip-path="url(#clip0_716_10732)">
<rect opacity="0.2" width="128" height="128" rx="64" fill="#FF3435"/>
<path d="M57.1835 74.6065C56.7081 74.6065 56.2922 74.4282 55.9356 74.0717C55.5791 73.7152 55.4008 73.3289 55.4008 72.9129C55.4008 72.6753 55.4008 72.4376 55.4008 72.1999C55.4008 71.9622 55.4305 71.7245 55.49 71.4868C55.9059 69.6447 56.6487 67.9511 57.7183 66.4061C58.788 64.8017 59.9764 63.3161 61.2837 61.9493C62.6505 60.5826 63.9578 59.3347 65.2057 58.2057C66.4536 57.0172 67.4935 55.8882 68.3254 54.8186C69.2168 53.6895 69.6624 52.6199 69.6624 51.6097C69.7218 50.6589 69.5139 49.8567 69.0385 49.203C68.6225 48.49 68.0283 47.9552 67.2558 47.5986C66.5427 47.2421 65.7108 47.0638 64.76 47.0638C62.6802 47.0638 61.1352 47.5392 60.125 48.49C59.1148 49.3813 58.372 50.5698 57.8966 52.0554C57.6589 52.709 57.3321 53.2438 56.9161 53.6598C56.5002 54.0758 55.8168 54.2837 54.866 54.2837H41.1392C40.545 54.2837 40.0399 54.046 39.6239 53.5707C39.208 53.0953 39 52.4713 39 51.6988C39.0594 49.3813 39.6537 47.0935 40.7827 44.8354C41.9117 42.5179 43.5756 40.3787 45.7743 38.4177C48.0323 36.4568 50.8252 34.9117 54.1529 33.7827C57.5401 32.5942 61.5214 32 66.097 32C70.9103 32 74.862 32.5645 77.952 33.6936C81.042 34.8226 83.4486 36.2785 85.1719 38.0612C86.9546 39.7845 88.2025 41.5969 88.9156 43.4984C89.6287 45.4 89.9555 47.1232 89.8961 48.6682C89.8961 50.6886 89.5395 52.5308 88.8264 54.1946C88.1728 55.8585 87.3111 57.4035 86.2415 58.8296C85.1719 60.1964 84.0429 61.5334 82.8544 62.8407C81.6659 64.0886 80.5369 65.3365 79.4673 66.5844C78.3977 67.7728 77.4766 69.0207 76.7041 70.328C76.5852 70.6252 76.4367 70.9223 76.2584 71.2194C76.1396 71.4571 76.0207 71.7542 75.9019 72.1107C75.4265 72.9427 74.9808 73.5666 74.5648 73.9826C74.2083 74.3985 73.6735 74.6065 72.9604 74.6065H57.1835ZM57.7183 95.2858C57.0647 95.2858 56.5002 95.0778 56.0248 94.6619C55.6088 94.1865 55.4008 93.622 55.4008 92.9683V80.846C55.4008 80.1923 55.6088 79.6278 56.0248 79.1524C56.5002 78.677 57.0647 78.4393 57.7183 78.4393H71.6234C72.2176 78.4393 72.7524 78.677 73.2278 79.1524C73.7032 79.6278 73.9409 80.1923 73.9409 80.846V92.9683C73.9409 93.622 73.7032 94.1865 73.2278 94.6619C72.7524 95.0778 72.2176 95.2858 71.6234 95.2858H57.7183Z" fill="#FF3435"/>
<path opacity="0.2" d="M15.9466 97.0294C15.7019 97.095 15.4632 97.0606 15.2305 96.9263C14.9978 96.7919 14.8528 96.6177 14.7954 96.4036C14.7626 96.2813 14.7298 96.1589 14.697 96.0366C14.6643 95.9142 14.6468 95.7878 14.6446 95.6572C14.6046 94.6517 14.7534 93.6775 15.0908 92.7348C15.4201 91.7614 15.8269 90.8329 16.3113 89.9491C16.8263 89.0571 17.3271 88.2345 17.8137 87.4812C18.2921 86.6974 18.6717 85.9728 18.9524 85.3075C19.2554 84.6035 19.3373 83.9915 19.198 83.4715C19.0974 82.9739 18.8797 82.5897 18.5449 82.3188C18.2325 82.0091 17.8528 81.8158 17.406 81.7388C16.9898 81.6537 16.537 81.6766 16.0477 81.8078C14.9771 82.0946 14.2475 82.5524 13.8586 83.1811C13.4616 83.7792 13.2432 84.4934 13.2034 85.3236C13.1712 85.6928 13.0767 86.0132 12.92 86.2847C12.7632 86.5561 12.4402 86.7574 11.9508 86.8886L4.88538 88.7817C4.57952 88.8637 4.28675 88.811 4.00708 88.6237C3.72741 88.4364 3.53431 88.1439 3.42777 87.7463C3.13873 86.5452 3.12906 85.2857 3.39877 83.9677C3.66028 82.6191 4.22165 81.2885 5.08289 79.976C5.97472 78.6552 7.19919 77.4747 8.7563 76.4347C10.3358 75.3558 12.3031 74.5008 14.6583 73.8698C17.1358 73.2059 19.2476 72.9515 20.9938 73.1064C22.74 73.2614 24.1795 73.6789 25.3124 74.3588C26.4677 74.9999 27.3599 75.7607 27.9892 76.6411C28.6185 77.5215 29.0244 78.3634 29.2069 79.1669C29.4856 80.2068 29.5561 81.2042 29.4186 82.1589C29.3116 83.1055 29.0812 84.0196 28.7273 84.9012C28.3653 85.7522 27.9685 86.5961 27.5371 87.4329C27.0975 88.2391 26.6884 89.0371 26.31 89.827C25.9234 90.5862 25.6214 91.3555 25.4041 92.135C25.3839 92.3043 25.3484 92.4777 25.2976 92.6552C25.2692 92.794 25.249 92.9633 25.237 93.1632C25.1071 93.657 24.9637 94.0396 24.807 94.3111C24.6808 94.5744 24.4342 94.7552 24.0672 94.8535L15.9466 97.0294ZM19.0739 107.6C18.7374 107.69 18.4182 107.661 18.1161 107.512C17.8365 107.325 17.6515 107.063 17.5614 106.726L15.8895 100.487C15.7993 100.15 15.8285 99.8312 15.9771 99.5291C16.1562 99.2188 16.414 99.0186 16.7504 98.9285L23.9076 97.0107C24.2135 96.9288 24.5215 96.9774 24.8318 97.1565C25.1421 97.3356 25.3423 97.5934 25.4324 97.9298L27.1043 104.169C27.1945 104.506 27.15 104.829 26.9708 105.14C26.7835 105.419 26.5369 105.6 26.2311 105.682L19.0739 107.6Z" fill="#FF3435"/>
<path opacity="0.2" d="M106.877 39.774C106.599 39.6995 106.383 39.53 106.23 39.2655C106.078 39.0011 106.034 38.7472 106.099 38.5038C106.136 38.3648 106.174 38.2258 106.211 38.0867C106.248 37.9477 106.303 37.8133 106.375 37.6835C106.907 36.6711 107.607 35.7969 108.475 35.0607C109.352 34.2898 110.28 33.6071 111.259 33.0125C112.273 32.4272 113.233 31.9021 114.14 31.4373C115.056 30.9377 115.842 30.4402 116.496 29.9449C117.194 29.4241 117.623 28.8683 117.781 28.2774C117.965 27.7305 117.969 27.2286 117.793 26.7717C117.662 26.2894 117.398 25.8834 117.002 25.5537C116.641 25.2334 116.182 24.9987 115.626 24.8497C114.409 24.5237 113.431 24.5596 112.691 24.9575C111.96 25.3205 111.339 25.8993 110.828 26.6938C110.587 27.039 110.312 27.3006 110.003 27.4787C109.695 27.6568 109.263 27.6714 108.706 27.5224L100.677 25.3708C100.329 25.2776 100.071 25.0594 99.9019 24.7161C99.7331 24.3728 99.7092 23.9752 99.8303 23.5233C100.228 22.177 100.935 20.9318 101.949 19.7879C102.973 18.6091 104.281 17.6185 105.875 16.816C107.503 16.0229 109.379 15.5568 111.503 15.418C113.67 15.2537 116.092 15.5301 118.769 16.2473C121.585 17.0017 123.808 17.9514 125.439 19.0962C127.069 20.241 128.249 21.4699 128.977 22.7828C129.75 24.0703 130.196 25.3261 130.315 26.5503C130.434 27.7744 130.355 28.8337 130.078 29.7282C129.762 30.9101 129.264 31.9318 128.586 32.7933C127.943 33.6642 127.197 34.4329 126.348 35.0995C125.508 35.7314 124.638 36.3365 123.738 36.915C122.847 37.4587 121.991 38.0117 121.169 38.574C120.357 39.1016 119.623 39.6872 118.966 40.3309C118.85 40.4861 118.717 40.6366 118.566 40.7824C118.459 40.9029 118.343 41.058 118.218 41.248C117.809 41.6601 117.451 41.9553 117.142 42.1334C116.868 42.3208 116.523 42.3587 116.106 42.2469L106.877 39.774ZM103.948 51.9547C103.566 51.8522 103.268 51.6421 103.055 51.3243C102.886 50.981 102.853 50.6181 102.956 50.2358L104.856 43.1445C104.958 42.7621 105.168 42.4645 105.486 42.2516C105.839 42.048 106.206 41.9974 106.589 42.0999L114.723 44.2794C115.07 44.3726 115.346 44.5954 115.55 44.948C115.753 45.3006 115.804 45.6681 115.701 46.0505L113.801 53.1418C113.699 53.5242 113.471 53.8172 113.119 54.0207C112.775 54.1895 112.43 54.2274 112.082 54.1342L103.948 51.9547Z" fill="#FF3435"/>
</g>
<defs>
<clipPath id="clip0_716_10732">
<rect width="128" height="128" rx="64" fill="white"/>
</clipPath>
</defs>
</svg>
