<svg width="20" height="20" viewBox="0 0 20 20" fill="none" xmlns="http://www.w3.org/2000/svg">
<g clip-path="url(#clip0_2049_15498)">
<path d="M9.99591 1.66675C5.39175 1.66675 1.66675 5.39591 1.66675 10.0001C1.66675 14.6042 5.39175 18.3334 9.99591 18.3334C14.6001 18.3334 18.3334 14.6042 18.3334 10.0001C18.3334 5.39591 14.6001 1.66675 9.99591 1.66675ZM10.0001 16.6667C6.31675 16.6667 3.33341 13.6834 3.33341 10.0001C3.33341 6.31675 6.31675 3.33341 10.0001 3.33341C13.6834 3.33341 16.6667 6.31675 16.6667 10.0001C16.6667 13.6834 13.6834 16.6667 10.0001 16.6667ZM12.9167 9.16675C13.6084 9.16675 14.1667 8.60841 14.1667 7.91675C14.1667 7.22508 13.6084 6.66675 12.9167 6.66675C12.2251 6.66675 11.6667 7.22508 11.6667 7.91675C11.6667 8.60841 12.2251 9.16675 12.9167 9.16675ZM7.08341 9.16675C7.77508 9.16675 8.33341 8.60841 8.33341 7.91675C8.33341 7.22508 7.77508 6.66675 7.08341 6.66675C6.39175 6.66675 5.83341 7.22508 5.83341 7.91675C5.83341 8.60841 6.39175 9.16675 7.08341 9.16675ZM10.0001 14.5834C11.9417 14.5834 13.5876 13.3709 14.2542 11.6667H5.74591C6.41258 13.3709 8.05841 14.5834 10.0001 14.5834Z" fill="#D7B7B7"/>
</g>
<defs>
<clipPath id="clip0_2049_15498">
<rect width="20" height="20" fill="white"/>
</clipPath>
</defs>
</svg>
