<svg width="13" height="13" viewBox="0 0 13 13" fill="none" xmlns="http://www.w3.org/2000/svg">
<path d="M5.77186 6.15594H3.83366C3.59095 6.15594 3.39434 6.36245 3.39434 6.61736V12.5386C3.39434 12.7935 3.59095 13 3.83366 13H5.77186C6.01456 13 6.21117 12.7935 6.21117 12.5386V6.61736C6.21117 6.36245 6.01456 6.15594 5.77186 6.15594ZM5.33254 12.0772H4.27245V7.07818H5.33254V12.0772ZM2.37752 9.20942H0.439318C0.196613 9.20942 0 9.41592 0 9.67084V12.5386C0 12.7935 0.196613 13 0.439318 13H2.37752C2.62022 13 2.81684 12.7935 2.81684 12.5386V9.67084C2.81684 9.41592 2.62022 9.20942 2.37752 9.20942ZM1.9382 12.0772H0.878112V10.1317H1.9382V12.0772ZM9.16632 7.19709H7.22811C6.98541 7.19709 6.7888 7.40359 6.7888 7.65851V12.5386C6.7888 12.7935 6.98541 13 7.22811 13H9.16632C9.40902 13 9.60563 12.7935 9.60563 12.5386V7.65851C9.60563 7.40359 9.40902 7.19709 9.16632 7.19709ZM8.727 12.0772H7.66691V8.1198H8.727V12.0772ZM12.5607 3.58107H10.6225C10.3798 3.58107 10.1832 3.78758 10.1832 4.04249V12.5386C10.1832 12.7935 10.3798 13 10.6225 13H12.5607C12.8034 13 13 12.7935 13 12.5386V4.04249C13 3.78758 12.8034 3.58107 12.5607 3.58107ZM12.1214 12.0772H11.0613V4.50394H12.1214V12.0772ZM0.689161 7.66456C0.518805 7.48319 0.521135 7.19089 0.693829 7.01258L5.2498 2.29847C5.40207 2.14038 5.64128 2.12138 5.81455 2.25313L8.0555 3.94984L10.7503 1.11943L10.4691 1.16293C10.2293 1.1997 10.0059 1.02506 9.97089 0.773205C9.93588 0.52135 10.1022 0.286656 10.342 0.249901L11.9347 0.00479158C12.0718 -0.0160423 12.2107 0.0317545 12.3087 0.134699C12.4067 0.237643 12.4528 0.38348 12.4324 0.527486L12.199 2.20035C12.164 2.45221 11.9411 2.62685 11.7007 2.59008C11.4609 2.55331 11.2947 2.31861 11.3297 2.06678L11.3711 1.77142L8.41205 4.87933C8.25978 5.03926 8.01941 5.05948 7.84438 4.92713L5.60104 3.22854L1.30943 7.66938C1.22366 7.75762 1.11281 7.80235 1.00138 7.80235C0.88761 7.80235 0.774937 7.75648 0.689161 7.66456Z" fill="white"/>
</svg>
