<svg width="11" height="14" viewBox="0 0 11 14" fill="none" xmlns="http://www.w3.org/2000/svg">
<path d="M11.001 13.5333C11.0011 13.5946 10.989 13.6553 10.9656 13.712C10.9422 13.7686 10.9078 13.8201 10.8644 13.8634C10.8211 13.9067 10.7696 13.9411 10.713 13.9645C10.6564 13.988 10.5957 14 10.5344 14H1.20104C1.13975 14 1.07905 13.988 1.02241 13.9645C0.96578 13.9411 0.914322 13.9067 0.870981 13.8634C0.82764 13.8201 0.793267 13.7686 0.769827 13.712C0.746387 13.6553 0.73434 13.5946 0.734375 13.5333C0.734375 12.1719 1.27521 10.8662 2.23789 9.90352C3.20058 8.94083 4.50626 8.4 5.86771 8.4C7.22915 8.4 8.53484 8.94083 9.49752 9.90352C10.4602 10.8662 11.001 12.1719 11.001 13.5333ZM5.86771 1.86667C5.31392 1.86667 4.77257 2.03088 4.31211 2.33855C3.85165 2.64622 3.49277 3.08352 3.28085 3.59515C3.06892 4.10679 3.01347 4.66977 3.12151 5.21292C3.22955 5.75607 3.49622 6.25498 3.88781 6.64657C4.2794 7.03815 4.77831 7.30483 5.32146 7.41287C5.8646 7.52091 6.42759 7.46546 6.93922 7.25353C7.45086 7.0416 7.88815 6.68272 8.19582 6.22226C8.50349 5.76181 8.66771 5.22045 8.66771 4.66667C8.6669 3.92431 8.37164 3.21259 7.84671 2.68766C7.32179 2.16274 6.61007 1.86748 5.86771 1.86667ZM1.66771 6.06667C1.91515 6.06635 2.15236 5.96791 2.32732 5.79295C2.50228 5.61798 2.60072 5.38077 2.60104 5.13333V4.2C2.60104 3.95247 2.50271 3.71507 2.32767 3.54003C2.15264 3.365 1.91524 3.26667 1.66771 3.26667C1.42017 3.26667 1.18278 3.365 1.00774 3.54003C0.832708 3.71507 0.734375 3.95247 0.734375 4.2V5.13333C0.734696 5.38077 0.833132 5.61798 1.0081 5.79295C1.18306 5.96791 1.42027 6.06635 1.66771 6.06667ZM5.86771 0.933334C6.49499 0.933973 7.11198 1.09277 7.66163 1.39503C8.21128 1.6973 8.67584 2.13328 9.01236 2.66266C9.2799 2.48142 9.59018 2.3733 9.91242 2.34903C9.50533 1.63552 8.91674 1.0424 8.20639 0.629853C7.49603 0.217301 6.68918 0 5.86771 0C5.04624 0 4.23939 0.217301 3.52903 0.629853C2.81867 1.0424 2.23009 1.63552 1.823 2.34903C2.14523 2.3733 2.45552 2.48142 2.72306 2.66266C3.05957 2.13328 3.52414 1.6973 4.07379 1.39503C4.62344 1.09277 5.24043 0.933973 5.86771 0.933334ZM10.0677 3.26667C9.82027 3.26699 9.58306 3.36542 9.4081 3.54039C9.23313 3.71535 9.1347 3.95256 9.13437 4.2V5.13333C9.13463 5.28907 9.17391 5.44226 9.24862 5.57891C9.32332 5.71556 9.43108 5.83131 9.56205 5.91559C9.49079 6.22338 9.31754 6.49802 9.07046 6.6949C8.82337 6.89177 8.51697 6.99929 8.20104 7C8.07727 7 7.95858 7.04917 7.87106 7.13668C7.78354 7.2242 7.73438 7.3429 7.73438 7.46667C7.73438 7.59044 7.78354 7.70913 7.87106 7.79665C7.95858 7.88417 8.07727 7.93333 8.20104 7.93333C8.75678 7.93181 9.29369 7.73175 9.71492 7.36925C10.1362 7.00675 10.414 6.50566 10.4983 5.95635C10.6493 5.87817 10.776 5.76012 10.8646 5.61503C10.9532 5.46994 11.0004 5.30335 11.001 5.13333V4.2C11.0007 3.95256 10.9023 3.71535 10.7273 3.54039C10.5524 3.36542 10.3151 3.26699 10.0677 3.26667Z" fill="white"/>
</svg>
