<svg width="20.3" height="22" viewBox="0 0 21 22" fill="none" xmlns="http://www.w3.org/2000/svg">
<g filter="url(#filter0_i_2701_47036)">
<ellipse cx="10.1512" cy="12" rx="10.1512" ry="10" fill="#450000"/>
</g>
<path d="M19.3023 12C19.3023 16.9565 15.2194 21 10.1512 21C5.08291 21 1 16.9565 1 12C1 7.04353 5.08291 3 10.1512 3C15.2194 3 19.3023 7.04353 19.3023 12Z" stroke="#2F0101" stroke-width="2"/>
<path d="M10.138 17.14C9.214 17.14 8.42067 17 7.758 16.72C7.09533 16.4307 6.57733 16.0013 6.204 15.432C5.83067 14.8627 5.63 14.158 5.602 13.318C5.59267 12.926 5.588 12.506 5.588 12.058C5.588 11.6007 5.59267 11.1713 5.602 10.77C5.63 9.958 5.83067 9.27667 6.204 8.726C6.58667 8.17533 7.114 7.76 7.786 7.48C8.458 7.2 9.242 7.06 10.138 7.06C10.8567 7.06 11.496 7.144 12.056 7.312C12.616 7.48 13.092 7.70867 13.484 7.998C13.8853 8.28733 14.1887 8.614 14.394 8.978C14.6087 9.33267 14.7207 9.70133 14.73 10.084C14.73 10.168 14.6973 10.2427 14.632 10.308C14.576 10.364 14.506 10.392 14.422 10.392H11.846C11.7527 10.392 11.678 10.378 11.622 10.35C11.566 10.3127 11.5147 10.266 11.468 10.21C11.4213 10.1167 11.3467 10.0093 11.244 9.888C11.1507 9.76667 11.0153 9.664 10.838 9.58C10.6607 9.48667 10.4273 9.44 10.138 9.44C9.69933 9.44 9.35867 9.552 9.116 9.776C8.87333 10 8.74267 10.3547 8.724 10.84C8.696 11.624 8.696 12.4267 8.724 13.248C8.74267 13.78 8.878 14.1673 9.13 14.41C9.39133 14.6433 9.74133 14.76 10.18 14.76C10.4693 14.76 10.726 14.7133 10.95 14.62C11.1833 14.5267 11.3653 14.382 11.496 14.186C11.6267 13.9807 11.692 13.7193 11.692 13.402V13.262H10.698C10.5953 13.262 10.5067 13.2247 10.432 13.15C10.3667 13.0753 10.334 12.9913 10.334 12.898V11.596C10.334 11.4933 10.3667 11.4093 10.432 11.344C10.5067 11.2693 10.5953 11.232 10.698 11.232H14.38C14.4827 11.232 14.5713 11.2693 14.646 11.344C14.7207 11.4093 14.758 11.4933 14.758 11.596V13.304C14.758 14.1253 14.562 14.8207 14.17 15.39C13.778 15.9593 13.2367 16.3933 12.546 16.692C11.8553 16.9907 11.0527 17.14 10.138 17.14Z" fill="white"/>
<defs>
<filter id="filter0_i_2701_47036" x="0" y="2" width="20.3008" height="24" filterUnits="userSpaceOnUse" color-interpolation-filters="sRGB">
<feFlood flood-opacity="0" result="BackgroundImageFix"/>
<feBlend mode="normal" in="SourceGraphic" in2="BackgroundImageFix" result="shape"/>
<feColorMatrix in="SourceAlpha" type="matrix" values="0 0 0 0 0 0 0 0 0 0 0 0 0 0 0 0 0 0 127 0" result="hardAlpha"/>
<feOffset dy="4"/>
<feGaussianBlur stdDeviation="2"/>
<feComposite in2="hardAlpha" operator="arithmetic" k2="-1" k3="1"/>
<feColorMatrix type="matrix" values="0 0 0 0 0 0 0 0 0 0 0 0 0 0 0 0 0 0 0.25 0"/>
<feBlend mode="normal" in2="shape" result="effect1_innerShadow_2701_47036"/>
</filter>
</defs>
</svg>
