<svg width="12" height="12" viewBox="0 0 12 12" fill="none" xmlns="http://www.w3.org/2000/svg">
<circle cx="6" cy="6" r="6" fill="#72B5FF"/>
<path d="M6.46141 2.76916C6.46141 2.51426 6.25478 2.30762 5.99987 2.30762C5.74496 2.30762 5.53833 2.51426 5.53833 2.76916V3.23069C5.53833 3.4856 5.74496 3.69223 5.99987 3.69223C6.25478 3.69223 6.46141 3.4856 6.46141 3.23069V2.76916Z" fill="white"/>
<path d="M6.46141 5.07677C6.46141 4.82187 6.25478 4.61523 5.99987 4.61523C5.74496 4.61523 5.53833 4.82187 5.53833 5.07677V9.23062C5.53833 9.48553 5.74496 9.69216 5.99987 9.69216C6.25478 9.69216 6.46141 9.48553 6.46141 9.23062V5.07677Z" fill="white"/>
<path fill-rule="evenodd" clip-rule="evenodd" d="M0 6C0 2.68629 2.68629 0 6 0C9.31371 0 12 2.68629 12 6C12 9.31371 9.31371 12 6 12C2.68629 12 0 9.31371 0 6ZM6 0.923077C3.19609 0.923077 0.923077 3.19609 0.923077 6C0.923077 8.80389 3.19609 11.0769 6 11.0769C8.80389 11.0769 11.0769 8.80389 11.0769 6C11.0769 3.19609 8.80389 0.923077 6 0.923077Z" fill="#72B5FF"/>
</svg>
