<svg width="12" height="15" viewBox="0 0 12 15" fill="none" xmlns="http://www.w3.org/2000/svg">
<path d="M10.7976 9.63234C10.7428 9.67559 10.7105 9.6983 10.681 9.72376C10.4037 9.96298 10.1292 10.2052 9.84864 10.4403C9.81511 10.4665 9.78841 10.5003 9.77083 10.539C9.75324 10.5777 9.74528 10.6201 9.74764 10.6626C9.74162 11.2301 9.73186 11.7975 9.71835 12.365C9.70987 12.7394 9.51663 12.931 9.13892 12.9483C9.07487 12.9513 9.01083 12.954 8.94733 12.954C7.17134 12.9566 5.39527 12.9585 3.6191 12.9598C2.94634 12.9598 2.27357 12.948 1.6008 12.9365C1.34516 12.9321 1.16287 12.7824 1.10649 12.5418C1.09253 12.4697 1.08666 12.3963 1.08897 12.3229C1.08103 11.0594 1.0679 9.79629 1.06872 8.53287C1.07054 6.26257 1.07729 3.99219 1.08897 1.72171C1.08632 1.63996 1.09405 1.5582 1.11196 1.47839C1.18285 1.21399 1.3583 1.0952 1.69742 1.09301C2.67701 1.0837 3.65633 1.07358 4.63592 1.0733C6.14185 1.0733 7.64777 1.07814 9.1537 1.08781C9.51307 1.09 9.70741 1.29254 9.71698 1.65547C9.73204 2.2319 9.73861 2.80859 9.75175 3.38529C9.75175 3.43647 9.76023 3.50572 9.79308 3.53473C10.1141 3.81993 10.4409 4.09829 10.7864 4.39608C10.791 4.35092 10.7946 4.33368 10.7946 4.31644C10.7946 3.40098 10.7937 2.48553 10.7918 1.57008C10.7918 1.11737 10.6136 0.741297 10.2836 0.440769C9.98166 0.1646 9.63843 -0.00920291 9.21008 0.00037678C8.63366 0.0137883 8.05669 0.00256642 7.47972 0.00311383C5.56186 0.00530348 3.64374 0.0102302 1.72588 0.00804053C1.3052 0.00749312 0.916538 0.0890573 0.593565 0.376448C0.230632 0.69942 0.00263547 1.08233 0.004004 1.59088C0.00865699 3.40363 -0.00229115 5.21638 0.000445903 7.02886C0.00318296 8.84133 0.0182367 10.6541 0.0212475 12.4666C0.0212475 12.9171 0.189029 13.286 0.513917 13.5857C0.81253 13.8594 1.15247 14.0155 1.57644 14.0141C4.18102 14.0051 6.78587 14.01 9.39046 14.0078C9.47679 14.0083 9.56261 13.9945 9.64445 13.967C10.3859 13.7078 10.7842 13.159 10.794 12.3727C10.8017 11.6679 10.7973 10.9628 10.7981 10.258C10.7978 10.0588 10.7976 9.85924 10.7976 9.63234Z" fill="#CB2728"/>
<path d="M10.7187 6.24085C9.68374 5.34675 8.6484 4.45264 7.6127 3.55854C7.57572 3.52439 7.53032 3.50071 7.48115 3.48994C7.43199 3.47916 7.38084 3.48168 7.33297 3.49723C7.16875 3.54102 7.06939 3.65269 7.05735 3.81856C7.03874 4.07365 7.03409 4.32738 7.02998 4.58357C7.0256 4.84797 7.02998 5.11921 7.02998 5.39291H6.87233C5.85159 5.39291 4.83085 5.39346 3.81011 5.39456C3.73602 5.39348 3.66246 5.40732 3.59384 5.43527C3.52521 5.46322 3.46291 5.5047 3.41065 5.55724C3.35839 5.60978 3.31725 5.6723 3.28967 5.74108C3.26209 5.80985 3.24863 5.88348 3.25011 5.95757C3.25011 6.67157 3.25011 7.38585 3.25011 8.10041C3.25011 8.38232 3.49863 8.62729 3.77973 8.62729C4.79244 8.62729 5.80296 8.62209 6.8143 8.62209H7.02013C7.02013 8.7042 7.02013 8.7614 7.02013 8.8197C7.02505 9.20289 7.02916 9.59155 7.03655 9.97583C7.03645 10.0586 7.04461 10.1411 7.06091 10.2222C7.12605 10.5115 7.45532 10.6215 7.67729 10.4288C8.92448 9.34549 10.1712 8.2618 11.4175 7.17775C11.4747 7.12793 11.527 7.07374 11.5891 7.01571C11.5456 6.97438 11.5138 6.94236 11.4796 6.91252C11.2267 6.68863 10.9746 6.46255 10.7187 6.24085Z" fill="#CB2728"/>
</svg>
