<svg width="13" height="13" viewBox="0 0 13 13" fill="none" xmlns="http://www.w3.org/2000/svg">
<g clip-path="url(#clip0_480_3142)">
<path d="M10.1222 7.24319C9.63035 7.24295 9.14663 7.36887 8.7173 7.60892C8.28797 7.84897 7.92739 8.19512 7.67 8.61428L5.56791 7.52909C5.82034 6.86678 5.82034 6.13476 5.56791 5.47245L7.67 4.38725C8.04729 5.00015 8.64091 5.44909 9.3334 5.64521C10.0259 5.84134 10.7668 5.77035 11.4094 5.44631C12.052 5.12227 12.5496 4.56879 12.8037 3.8954C13.0577 3.22201 13.0497 2.47778 12.7813 1.81001C12.5128 1.14224 12.0034 0.599578 11.354 0.289429C10.7045 -0.0207201 9.96227 -0.0757582 9.27416 0.135207C8.58605 0.346172 8.00222 0.807768 7.6382 1.42864C7.27417 2.04951 7.15649 2.78442 7.30844 3.48791L5.07533 4.6409C4.69431 4.19091 4.18429 3.86879 3.61424 3.71809C3.04418 3.56739 2.4416 3.59538 1.88798 3.79829C1.33436 4.00119 0.856396 4.36922 0.518735 4.85259C0.181074 5.33597 0 5.91138 0 6.50102C0 7.09066 0.181074 7.66607 0.518735 8.14945C0.856396 8.63282 1.33436 9.00085 1.88798 9.20375C2.4416 9.40666 3.04418 9.43465 3.61424 9.28395C4.18429 9.13325 4.69431 8.81113 5.07533 8.36114L7.30844 9.51413C7.18254 10.0961 7.24023 10.7028 7.47354 11.2506C7.70686 11.7985 8.10433 12.2605 8.61118 12.573C9.11803 12.8855 9.70932 13.0331 10.3036 12.9955C10.8978 12.958 11.4658 12.737 11.9293 12.3631C12.3927 11.9893 12.7288 11.4809 12.8912 10.908C13.0537 10.3352 13.0345 9.72603 12.8363 9.16454C12.6381 8.60305 12.2706 8.11685 11.7845 7.77292C11.2984 7.429 10.7177 7.24427 10.1222 7.2442V7.24319ZM10.1045 0.982114C10.272 0.982063 10.4357 1.0317 10.575 1.12475C10.7144 1.2178 10.8229 1.35008 10.887 1.50484C10.9511 1.65961 10.9679 1.82992 10.9352 1.99421C10.9025 2.15851 10.8218 2.30941 10.7033 2.42783C10.5848 2.54625 10.4338 2.62686 10.2695 2.65947C10.1052 2.69208 9.93492 2.67522 9.78019 2.61102C9.62546 2.54682 9.49325 2.43816 9.40029 2.29881C9.30732 2.15945 9.25778 1.99565 9.25793 1.82813C9.25807 1.60371 9.34731 1.38852 9.50605 1.22987C9.66479 1.07123 9.88003 0.982113 10.1045 0.982114ZM8.72397 3.45897V3.45516C8.73663 3.33644 8.7898 3.2257 8.87453 3.14159C8.95951 3.05633 9.07102 3.00259 9.19065 2.98924C9.36559 2.97071 9.89854 2.96055 10.1692 2.9608C10.4399 2.96106 10.8748 2.97071 11.05 2.98924C11.1695 3.00265 11.281 3.05638 11.3659 3.14159C11.4506 3.22583 11.5037 3.33663 11.5164 3.45541V3.45897C11.5252 3.53338 11.5296 3.60824 11.5296 3.68317C11.5301 3.77372 11.5258 3.86424 11.5167 3.95434V3.95789C11.5023 4.08257 11.4501 4.19983 11.3669 4.29381C11.285 4.3895 11.1745 4.45635 11.0518 4.4845C10.8771 4.52411 10.4424 4.56295 10.1697 4.56067C9.89778 4.56752 9.36381 4.52512 9.18912 4.4845C9.06641 4.45625 8.95598 4.38942 8.87403 4.29381C8.79089 4.19981 8.73861 4.08256 8.72422 3.95789V3.95409C8.71503 3.86418 8.71223 3.77373 8.71584 3.68342C8.71212 3.60851 8.71484 3.53342 8.72397 3.45897ZM2.86127 4.60383C3.0287 4.60383 3.19237 4.65348 3.33158 4.7465C3.47079 4.83951 3.57929 4.97172 3.64336 5.12641C3.70743 5.28109 3.72419 5.45129 3.69153 5.6155C3.65887 5.77971 3.57824 5.93055 3.45985 6.04894C3.34147 6.16733 3.19063 6.24795 3.02642 6.28061C2.86221 6.31328 2.692 6.29651 2.53732 6.23244C2.38264 6.16837 2.25043 6.05987 2.15741 5.92066C2.0644 5.78145 2.01475 5.61778 2.01475 5.45036C2.01475 5.22584 2.10394 5.01053 2.26269 4.85177C2.42144 4.69302 2.63676 4.60383 2.86127 4.60383ZM4.27401 7.57581V7.57936C4.25972 7.70413 4.20742 7.82148 4.1242 7.91553C4.04225 8.01114 3.93182 8.07797 3.8091 8.10622C3.63442 8.14557 3.19973 8.18467 2.92703 8.18239C2.6551 8.18924 2.12114 8.14709 1.94645 8.10622C1.82365 8.07817 1.71316 8.0113 1.63135 7.91553C1.54818 7.82155 1.49588 7.70429 1.48155 7.57961V7.57606C1.47233 7.4859 1.46953 7.39519 1.47317 7.30463C1.46954 7.2298 1.47234 7.15479 1.48155 7.08043V7.07688C1.49425 6.9581 1.54741 6.84729 1.63211 6.76305C1.71708 6.67777 1.82859 6.62403 1.94823 6.61071C2.12317 6.59217 2.65612 6.58202 2.92678 6.58202C3.19744 6.58202 3.63239 6.59217 3.80758 6.61071C3.92716 6.62399 4.0386 6.67774 4.12344 6.76305C4.20817 6.84717 4.26134 6.9579 4.27401 7.07663V7.08043C4.28278 7.15476 4.28719 7.22954 4.28721 7.30438C4.28758 7.39502 4.28318 7.48562 4.27401 7.57581ZM10.1045 8.22657C10.272 8.22652 10.4358 8.27617 10.5751 8.36924C10.7144 8.46231 10.823 8.59462 10.8871 8.74941C10.9512 8.90421 10.9679 9.07454 10.9352 9.23885C10.9024 9.40316 10.8217 9.55407 10.7031 9.67247C10.5846 9.79086 10.4336 9.87144 10.2692 9.90399C10.1049 9.93654 9.93456 9.9196 9.77984 9.85532C9.62512 9.79105 9.49294 9.68231 9.40004 9.54289C9.30714 9.40347 9.25768 9.23962 9.25793 9.07207C9.2582 8.84774 9.34751 8.63268 9.50623 8.47415C9.66496 8.31561 9.88012 8.22657 10.1045 8.22657ZM11.5172 11.1973V11.2008C11.5029 11.3255 11.4506 11.4428 11.3674 11.5367C11.2855 11.6324 11.175 11.6993 11.0523 11.7274C10.8776 11.767 10.4429 11.8059 10.1702 11.8036C9.89828 11.8105 9.36432 11.7681 9.18963 11.7274C9.06692 11.6992 8.95649 11.6323 8.87453 11.5367C8.7914 11.4427 8.73911 11.3255 8.72473 11.2008V11.1973C8.71554 11.1074 8.71274 11.0169 8.71635 10.9266C8.71272 10.8518 8.71553 10.7768 8.72473 10.7024V10.6986C8.7372 10.5799 8.79019 10.469 8.87479 10.3848C8.96003 10.2993 9.07193 10.2455 9.19192 10.2324C9.36686 10.2139 9.89981 10.2037 10.1705 10.204C10.4411 10.2042 10.8761 10.2139 11.0513 10.2324C11.1708 10.2458 11.2822 10.2996 11.3671 10.3848C11.4518 10.469 11.505 10.5798 11.5177 10.6986V10.7022C11.5265 10.7766 11.5309 10.8514 11.5309 10.9264C11.5311 11.0168 11.5265 11.1073 11.5172 11.1973Z" fill="white"/>
</g>
<defs>
<clipPath id="clip0_480_3142">
<rect width="13" height="13" fill="white"/>
</clipPath>
</defs>
</svg>
