<svg width="12" height="12" viewBox="0 0 12 12" fill="none" xmlns="http://www.w3.org/2000/svg">
<path fill-rule="evenodd" clip-rule="evenodd" d="M11.2857 5.98742C11.2857 8.90969 8.91761 11.2777 5.99548 11.2777C4.59268 11.2777 3.24681 10.7208 2.25521 9.72836C1.26281 8.73676 0.705078 7.39102 0.705078 5.98742C0.705078 3.06595 3.07388 0.697021 5.99548 0.697021C8.91761 0.697155 11.2857 3.06609 11.2857 5.98742Z" fill="#FF3435"/>
<path d="M5.99593 3.35278C6.3458 3.35278 6.68126 3.49172 6.92926 3.73958C7.17633 3.98678 7.3154 4.32212 7.3154 4.67292C7.31473 5.07492 7.13046 5.45545 6.8146 5.70545C6.64793 5.88892 6.7318 6.03185 6.8798 6.08892C7.61753 6.25212 8.15846 6.83038 8.15846 7.62918C8.15846 8.00692 8.1902 8.08945 7.78073 8.08945H4.12233C3.80353 8.08945 3.83273 7.87705 3.83273 7.62918C3.83273 6.83038 4.37446 6.25145 5.1118 6.08892C5.25833 6.03185 5.34233 5.89092 5.18073 5.70972C4.8626 5.45972 4.6766 5.07692 4.6766 4.67292C4.6766 4.32212 4.8154 3.98678 5.06273 3.73958C5.31046 3.49172 5.64593 3.35278 5.99593 3.35278Z" fill="white" fill-opacity="0.866667"/>
<path fill-rule="evenodd" clip-rule="evenodd" d="M5.99614 1.09167C3.29668 1.09167 1.09961 3.28834 1.09961 5.98754C1.09961 8.68688 3.29681 10.8841 5.99614 10.8841C6.86281 10.8841 7.67734 10.6563 8.38414 10.2591L7.79041 9.66541C7.24881 9.92994 6.64121 10.0814 5.99614 10.0814C3.73014 10.0814 1.90214 8.25354 1.90214 5.98754C1.90214 5.04661 2.21828 4.18128 2.74948 3.49021L4.26001 5.00048C4.19108 4.65901 4.25308 4.27207 4.37721 3.98327L3.29961 2.90554C4.01908 2.27567 4.96121 1.89381 5.99614 1.89381C8.26134 1.89381 10.0905 3.72221 10.0905 5.98754C10.0905 7.02234 9.70868 7.96528 9.07814 8.68474L8.52814 8.13394C8.39001 8.40061 8.05934 8.51821 7.77734 8.51821L9.06148 9.80208C10.1767 8.90354 10.8928 7.52781 10.8928 5.98754C10.8927 3.28821 8.69521 1.09167 5.99614 1.09167Z" fill="white"/>
</svg>
