<svg width="13" height="13" viewBox="0 0 13 13" fill="none" xmlns="http://www.w3.org/2000/svg">
<path d="M6.47461 0.40625C2.90443 0.40625 0 2.96887 0 6.11914C0 7.44991 0.526652 8.7394 1.48512 9.76148C1.67482 10.5437 1.44457 11.3723 0.873285 11.9436C0.63441 12.1825 0.803334 12.5938 1.14258 12.5938C2.22787 12.5938 3.27412 12.1686 4.05146 11.4188C4.82061 11.6933 5.63441 11.832 6.47461 11.832C10.0448 11.832 13 9.26941 13 6.11914C13 2.96887 10.0448 0.40625 6.47461 0.40625ZM3.47852 7.26172C2.84847 7.26172 2.33594 6.74918 2.33594 6.11914C2.33594 5.4891 2.84847 4.97656 3.47852 4.97656C4.10856 4.97656 4.62109 5.4891 4.62109 6.11914C4.62109 6.74918 4.10856 7.26172 3.47852 7.26172ZM6.52539 7.26172C5.89535 7.26172 5.38281 6.74918 5.38281 6.11914C5.38281 5.4891 5.89535 4.97656 6.52539 4.97656C7.15543 4.97656 7.66797 5.4891 7.66797 6.11914C7.66797 6.74918 7.15543 7.26172 6.52539 7.26172ZM9.57227 7.26172C8.94222 7.26172 8.42969 6.74918 8.42969 6.11914C8.42969 5.4891 8.94222 4.97656 9.57227 4.97656C10.2023 4.97656 10.7148 5.4891 10.7148 6.11914C10.7148 6.74918 10.2023 7.26172 9.57227 7.26172Z" fill="white"/>
</svg>
