<svg width="20" height="20" viewBox="0 0 20 20" fill="none" xmlns="http://www.w3.org/2000/svg">
<path fill-rule="evenodd" clip-rule="evenodd" d="M14.5593 5.57347C14.5708 5.53889 14.589 5.50693 14.613 5.47944C14.6369 5.45195 14.666 5.42948 14.6987 5.41331L17.0155 4.26237C17.0482 4.24605 17.0838 4.23636 17.1202 4.23383C17.1567 4.23131 17.1933 4.23601 17.2279 4.24767C17.2625 4.25933 17.2945 4.27771 17.322 4.30177C17.3495 4.32582 17.372 4.35508 17.3881 4.38784L19.9711 9.58862C20.0036 9.65468 20.0087 9.73093 19.9853 9.80074C19.9618 9.87054 19.9117 9.92822 19.8458 9.9612L17.5291 11.1121C17.463 11.1447 17.3867 11.1498 17.3169 11.1263C17.247 11.1028 17.1894 11.0525 17.1565 10.9866L14.5734 5.78542C14.5572 5.75277 14.5476 5.71724 14.5451 5.68086C14.5427 5.64448 14.5475 5.60798 14.5593 5.57347ZM9.12125 6.29101L6.1525 8.49562C6.34391 9.02925 6.71891 9.22378 7.52512 9.21718C7.59813 9.1969 7.92766 9.04882 9.32407 8.04315C9.37534 8.00642 9.43875 7.99073 9.50124 7.99933C9.56373 8.00792 9.62055 8.04015 9.66 8.08937C10.038 8.56312 10.5263 8.93705 11.0823 9.17845C11.6382 9.41986 12.2448 9.52139 12.849 9.47417C12.9069 9.46982 12.9645 9.48597 13.0118 9.51979L15.5286 11.3332L16.4817 10.7333L14.3892 6.52015L14.0315 6.69358C13.9875 6.71469 13.9384 6.72235 13.8901 6.71562L9.74496 6.13245C9.63568 6.11496 9.52398 6.12 9.41672 6.14727C9.30946 6.17453 9.20891 6.22345 9.12125 6.29101ZM8.04868 6.47507C7.24081 6.34862 6.41725 6.36163 5.61379 6.51354L3.4259 10.9189L3.57184 11.0275C6.13043 12.926 7.82043 14.1799 10.5026 15.6635C10.7551 15.803 11.1172 15.8304 11.3156 15.5603C11.4033 15.4399 11.44 15.2898 11.4175 15.1426C11.395 14.9954 11.3152 14.863 11.1955 14.7743C11.1955 14.7739 11.1952 14.7739 11.195 14.7739L9.82153 13.7641C9.77137 13.7245 9.73853 13.6671 9.72995 13.6038C9.72136 13.5406 9.7377 13.4764 9.77551 13.425C9.81332 13.3735 9.86965 13.3388 9.9326 13.3281C9.99554 13.3174 10.0602 13.3316 10.1129 13.3677L12.067 14.8041C12.1873 14.8909 12.337 14.9267 12.4835 14.9037C12.6301 14.8807 12.7616 14.8007 12.8495 14.6812C12.9373 14.5616 12.9744 14.4122 12.9526 14.2655C12.9309 14.1187 12.852 13.9865 12.7332 13.8976L11.3036 12.8469C11.2536 12.8073 11.2209 12.7499 11.2124 12.6867C11.2039 12.6236 11.2203 12.5596 11.258 12.5082C11.2958 12.4569 11.3519 12.4221 11.4148 12.4114C11.4776 12.4006 11.5421 12.4146 11.5948 12.4505L13.0245 13.5013C13.0245 13.5017 13.0245 13.5017 13.0247 13.5017L13.5487 13.887C13.6082 13.9308 13.6758 13.9624 13.7475 13.98C13.8193 13.9976 13.8938 14.001 13.9668 13.9898C14.0398 13.9787 14.1099 13.9532 14.1731 13.915C14.2363 13.8767 14.2914 13.8264 14.3351 13.7668C14.3789 13.7073 14.4105 13.6398 14.4281 13.568C14.4458 13.4963 14.4491 13.4218 14.4379 13.3487C14.4268 13.2757 14.4013 13.2056 14.3631 13.1424C14.3248 13.0792 14.2745 13.0241 14.215 12.9804C14.215 12.9804 14.215 12.9804 14.2147 12.98L12.6421 11.8242C12.6149 11.8056 12.5917 11.7816 12.5739 11.7538C12.5561 11.726 12.5441 11.6949 12.5386 11.6624C12.5331 11.6299 12.5341 11.5966 12.5417 11.5644C12.5494 11.5323 12.5634 11.5021 12.5829 11.4755C12.6024 11.4489 12.6271 11.4265 12.6555 11.4097C12.6839 11.3928 12.7153 11.3818 12.748 11.3774C12.7807 11.3729 12.814 11.3751 12.8458 11.3838C12.8777 11.3924 12.9074 11.4074 12.9334 11.4278L14.5061 12.5841C14.5061 12.5841 14.5064 12.5841 14.5065 12.5844L14.8874 12.8644C14.9769 12.9305 15.0841 12.9685 15.1952 12.9735C15.3064 12.9786 15.4165 12.9505 15.5117 12.8928C15.6069 12.8352 15.6827 12.7505 15.7297 12.6497C15.7767 12.5488 15.7927 12.4363 15.7755 12.3263C15.7648 12.2533 15.7396 12.1831 15.7015 12.1199C15.6634 12.0567 15.6132 12.0017 15.5537 11.958L12.7959 9.97054C12.1654 10.0063 11.5351 9.8994 10.9517 9.6578C10.3683 9.4162 9.84695 9.04612 9.42641 8.57511C7.84508 9.70468 7.66555 9.70718 7.54516 9.70874C6.85301 9.71784 6.01555 9.60491 5.6809 8.63776C5.64833 8.54442 5.64649 8.44311 5.67565 8.34864C5.70481 8.25418 5.76345 8.17154 5.84297 8.1128L8.0484 6.47511L8.04868 6.47507ZM2.86118 4.23315C2.90395 4.23321 2.94613 4.24321 2.98438 4.26237L5.30118 5.41319C5.36698 5.44612 5.41709 5.50374 5.44055 5.57348C5.46401 5.64322 5.45893 5.71941 5.42641 5.78542L2.84336 10.9866C2.81052 11.0525 2.75286 11.1028 2.68303 11.1263C2.6132 11.1498 2.53689 11.1447 2.47082 11.1121L0.154027 9.9612C0.0881682 9.92824 0.0380262 9.87056 0.014548 9.80075C-0.00893017 9.73095 -0.0038375 9.65469 0.0287142 9.58862L2.61176 4.38784C2.63476 4.34137 2.6703 4.30226 2.71436 4.27492C2.75842 4.24759 2.80925 4.23312 2.8611 4.23315H2.86118Z" fill="white"/>
</svg>
