<svg width="16" height="16" viewBox="0 0 16 16" fill="none" xmlns="http://www.w3.org/2000/svg">
<g filter="url(#filter0_i_465_5035)">
<circle cx="8" cy="8" r="8" fill="#FEBD11"/>
</g>
<circle cx="8" cy="8" r="7" stroke="#E4AA0E" stroke-width="2"/>
<path d="M7.65121 10.8281C7.31591 10.8281 6.99738 10.7856 6.69561 10.7005C6.39384 10.6097 6.12281 10.4792 5.88251 10.3091C5.6478 10.1389 5.4606 9.92898 5.32089 9.67938C5.18677 9.42978 5.11692 9.14047 5.11133 8.81145C5.11133 8.76039 5.12809 8.71785 5.16162 8.68381C5.19515 8.6441 5.23706 8.62425 5.28736 8.62425H6.71238C6.80179 8.62425 6.86605 8.6441 6.90517 8.68381C6.94988 8.72352 6.989 8.78876 7.02253 8.87952C7.06164 8.99298 7.10914 9.08941 7.16503 9.16883C7.2265 9.24258 7.30194 9.29647 7.39135 9.33051C7.48077 9.36454 7.58415 9.38156 7.7015 9.38156C7.91945 9.38156 8.0871 9.31065 8.20445 9.16883C8.32739 9.02701 8.38886 8.80294 8.38886 8.49661V6.28423H5.78192C5.72045 6.28423 5.66736 6.26438 5.62266 6.22467C5.58354 6.17929 5.56398 6.12539 5.56398 6.06299V5.00786C5.56398 4.94546 5.58354 4.8944 5.62266 4.85469C5.66736 4.80931 5.72045 4.78662 5.78192 4.78662H10.0318C10.0933 4.78662 10.1436 4.80931 10.1827 4.85469C10.2274 4.8944 10.2498 4.94546 10.2498 5.00786V8.55617C10.2498 9.06105 10.1352 9.48367 9.90609 9.82404C9.68255 10.1587 9.3724 10.4112 8.97564 10.5814C8.58445 10.7459 8.14298 10.8281 7.65121 10.8281Z" fill="white"/>
<defs>
<filter id="filter0_i_465_5035" x="0" y="0" width="16" height="20" filterUnits="userSpaceOnUse" color-interpolation-filters="sRGB">
<feFlood flood-opacity="0" result="BackgroundImageFix"/>
<feBlend mode="normal" in="SourceGraphic" in2="BackgroundImageFix" result="shape"/>
<feColorMatrix in="SourceAlpha" type="matrix" values="0 0 0 0 0 0 0 0 0 0 0 0 0 0 0 0 0 0 127 0" result="hardAlpha"/>
<feOffset dy="4"/>
<feGaussianBlur stdDeviation="2"/>
<feComposite in2="hardAlpha" operator="arithmetic" k2="-1" k3="1"/>
<feColorMatrix type="matrix" values="0 0 0 0 0 0 0 0 0 0 0 0 0 0 0 0 0 0 0.25 0"/>
<feBlend mode="normal" in2="shape" result="effect1_innerShadow_465_5035"/>
</filter>
</defs>
</svg>
