<svg width="12" height="12" viewBox="0 0 12 12" fill="none" xmlns="http://www.w3.org/2000/svg">
<path d="M11.5 9.5C11.5 9.63261 11.4473 9.75979 11.3536 9.85355C11.2598 9.94732 11.1326 10 11 10H5C4.86739 10 4.74021 9.94732 4.64645 9.85355C4.55268 9.75979 4.5 9.63261 4.5 9.5C4.5 8.70435 4.81607 7.94129 5.37868 7.37868C5.94129 6.81607 6.70435 6.5 7.5 6.5H8.5C9.29565 6.5 10.0587 6.81607 10.6213 7.37868C11.1839 7.94129 11.5 8.70435 11.5 9.5ZM8 2C7.60444 2 7.21776 2.1173 6.88886 2.33706C6.55996 2.55682 6.30362 2.86918 6.15224 3.23463C6.00087 3.60009 5.96126 4.00222 6.03843 4.39018C6.1156 4.77814 6.30608 5.13451 6.58579 5.41421C6.86549 5.69392 7.22186 5.8844 7.60982 5.96157C7.99778 6.03874 8.39991 5.99913 8.76537 5.84776C9.13082 5.69638 9.44318 5.44004 9.66294 5.11114C9.8827 4.78224 10 4.39556 10 4C10 3.46957 9.78929 2.96086 9.41421 2.58579C9.03914 2.21071 8.53043 2 8 2ZM3.5 2C3.10444 2 2.71776 2.1173 2.38886 2.33706C2.05996 2.55682 1.80362 2.86918 1.65224 3.23463C1.50087 3.60009 1.46126 4.00222 1.53843 4.39018C1.6156 4.77814 1.80608 5.13451 2.08579 5.41421C2.36549 5.69392 2.72186 5.8844 3.10982 5.96157C3.49778 6.03874 3.89991 5.99913 4.26537 5.84776C4.63082 5.69638 4.94318 5.44004 5.16294 5.11114C5.3827 4.78224 5.5 4.39556 5.5 4C5.5 3.46957 5.28929 2.96086 4.91421 2.58579C4.53914 2.21071 4.03043 2 3.5 2ZM3.5 9.5C3.49926 8.9748 3.60273 8.45468 3.80442 7.96976C4.00612 7.48484 4.30202 7.04475 4.675 6.675C4.36977 6.55976 4.04626 6.50048 3.72 6.5H3.28C2.5431 6.50132 1.83677 6.79464 1.3157 7.3157C0.794638 7.83677 0.501322 8.5431 0.5 9.28V9.5C0.5 9.63261 0.552678 9.75979 0.646447 9.85355C0.740215 9.94732 0.867392 10 1 10H3.59C3.53179 9.83966 3.50135 9.67057 3.5 9.5Z" fill="white"/>
</svg>
