<svg width="13" height="13" viewBox="0 0 13 13" fill="none" xmlns="http://www.w3.org/2000/svg">
<g clip-path="url(#clip0_480_3149)">
<path d="M2.08223 8.3584L0.852767 10.8169C0.793654 10.9351 0.800002 11.0754 0.86933 11.1877C0.938857 11.2998 1.06125 11.3682 1.19326 11.3682H3.04271L4.15236 12.8477C4.22446 12.9442 4.33763 13 4.45675 13C4.61494 13 4.73961 12.9056 4.79754 12.7896L5.95608 10.4724C4.3897 10.3226 3.00869 9.52835 2.08223 8.3584Z" fill="white"/>
<path d="M12.1404 10.8169L10.911 8.3584C9.9845 9.52835 8.60349 10.3226 7.03711 10.4724L8.19576 12.7896C8.25358 12.9056 8.37825 13 8.53645 13C8.65556 13 8.76883 12.9442 8.84093 12.8477L9.95049 11.3682H11.7999C11.9319 11.3682 12.0543 11.2998 12.1239 11.1877C12.1932 11.0754 12.1995 10.9351 12.1404 10.8169Z" fill="white"/>
<path d="M7.13327 3.74877L6.49583 2.73047L5.85858 3.74877C5.80631 3.83228 5.72369 3.89229 5.62818 3.91619L4.46289 4.20769L5.23433 5.12849C5.29761 5.20397 5.32915 5.30107 5.3223 5.39936L5.23929 6.59768L6.3534 6.14858C6.40636 6.12726 6.51467 6.09879 6.63815 6.14858L7.75237 6.59768L7.66945 5.39936C7.6627 5.30107 7.69424 5.20397 7.75752 5.12849L8.52896 4.20769L7.36367 3.91619C7.26816 3.89229 7.18554 3.83228 7.13327 3.74877Z" fill="white"/>
<path d="M11.3654 4.86826C11.3654 2.18389 9.18153 0 6.49716 0C3.8128 0 1.62891 2.18389 1.62891 4.86826C1.62891 7.55252 3.8128 9.73651 6.49716 9.73651C9.18153 9.73651 11.3654 7.55262 11.3654 4.86826ZM9.50496 4.23042L8.44133 5.49995L8.55559 7.15212C8.56461 7.28304 8.5057 7.4094 8.39957 7.48656C8.29335 7.56363 8.15499 7.58069 8.03329 7.53169L6.49716 6.9125L4.96103 7.53169C4.91987 7.54826 4.75592 7.6036 4.59475 7.48656C4.48862 7.4094 4.42971 7.28304 4.43874 7.15212L4.55319 5.49995L3.48956 4.23051C3.40526 4.12984 3.37868 3.99297 3.41924 3.8682C3.45981 3.74343 3.56177 3.64822 3.68912 3.61638L5.29567 3.21449L6.17432 1.81057C6.24395 1.69939 6.36594 1.63184 6.49716 1.63184C6.62838 1.63184 6.75037 1.69939 6.82 1.81057L7.69885 3.21449L9.3054 3.61638C9.43275 3.64822 9.53471 3.74343 9.57528 3.8682C9.61584 3.99297 9.58926 4.12984 9.50496 4.23042Z" fill="white"/>
</g>
<defs>
<clipPath id="clip0_480_3149">
<rect width="13" height="13" fill="white"/>
</clipPath>
</defs>
</svg>
