<svg width="16" height="16" viewBox="0 0 16 16" fill="none" xmlns="http://www.w3.org/2000/svg">
<g clip-path="url(#clip0_474_2933)">
<path d="M15.5312 13.1875H13.1562V10.8438C13.1562 10.5849 12.9464 10.375 12.6875 10.375H8.46875V9.4375H9.875C10.1339 9.4375 10.3438 9.22763 10.3438 8.96875C10.3438 8.70987 10.1339 8.5 9.875 8.5H6.125C5.86613 8.5 5.65625 8.70987 5.65625 8.96875C5.65625 9.22763 5.86613 9.4375 6.125 9.4375H7.53125V10.375H3.3125C3.05363 10.375 2.84375 10.5849 2.84375 10.8438V13.1875H0.46875C0.209875 13.1875 0 13.3974 0 13.6562V15.5312C0 15.7901 0.209875 16 0.46875 16C0.727625 16 0.9375 15.7901 0.9375 15.5312V14.125H5.65625V15.5312C5.65625 15.7901 5.86613 16 6.125 16C6.38387 16 6.59375 15.7901 6.59375 15.5312V13.6562C6.59375 13.3974 6.38387 13.1875 6.125 13.1875H3.78125V11.3125H12.2188V13.1875H9.875C9.61613 13.1875 9.40625 13.3974 9.40625 13.6562V15.5312C9.40625 15.7901 9.61613 16 9.875 16C10.1339 16 10.3438 15.7901 10.3438 15.5312V14.125H15.0625V15.5312C15.0625 15.7901 15.2724 16 15.5312 16C15.7901 16 16 15.7901 16 15.5312V13.6562C16 13.3974 15.7901 13.1875 15.5312 13.1875Z" fill="white"/>
<path d="M5.65625 3.75H5.70341C5.89028 4.667 6.61425 5.39094 7.53125 5.57784V6.625H7.0625C6.80363 6.625 6.59375 6.83488 6.59375 7.09375C6.59375 7.35262 6.80363 7.5625 7.0625 7.5625H8.9375C9.19637 7.5625 9.40625 7.35262 9.40625 7.09375C9.40625 6.83488 9.19637 6.625 8.9375 6.625H8.46875V5.57784C9.38575 5.39097 10.1097 4.667 10.2966 3.75H10.3438C11.3776 3.75 12.2188 2.90887 12.2188 1.875V0.46875C12.2188 0.209875 12.0089 0 11.75 0H4.25C3.99112 0 3.78125 0.209875 3.78125 0.46875V1.875C3.78125 2.90887 4.62238 3.75 5.65625 3.75ZM11.2812 1.875C11.2812 2.39194 10.8607 2.8125 10.3438 2.8125V0.9375H11.2812V1.875ZM4.71875 0.9375H5.65625V2.8125C5.13931 2.8125 4.71875 2.39194 4.71875 1.875V0.9375Z" fill="white"/>
</g>
<defs>
<clipPath id="clip0_474_2933">
<rect width="16" height="16" fill="white"/>
</clipPath>
</defs>
</svg>
