<svg width="13" height="13" viewBox="0 0 13 13" fill="none" xmlns="http://www.w3.org/2000/svg">
<g clip-path="url(#clip0_615_8013)">
<path d="M6.5 0.406029C5.6036 0.406045 4.75103 0.599021 3.98395 0.947165C3.87894 0.994841 3.83462 1.12022 3.88635 1.22327L4.24936 1.95048C4.29811 2.04815 4.41531 2.08984 4.51477 2.0449C5.12111 1.77418 5.79222 1.62517 6.5 1.62517C9.19479 1.62517 11.3746 3.80499 11.3746 6.49978C11.3746 7.51351 11.0626 8.4503 10.5335 9.23046L9.89322 8.58973C9.84946 8.54589 9.78812 8.5244 9.72659 8.53139C9.62395 8.54329 9.5466 8.63039 9.54688 8.73372V10.9681C9.54647 11.0803 9.63703 11.1716 9.7492 11.172H11.9832C12.1657 11.1735 12.2573 10.9521 12.1272 10.8241L11.4071 10.104C12.15 9.09413 12.5937 7.84863 12.5937 6.49976C12.5937 3.13667 9.86307 0.406022 6.5 0.406029ZM1.01483 1.8275C0.834196 1.82757 0.743492 2.04572 0.870819 2.17385L1.59128 2.89431C0.848283 3.90433 0.40625 5.15066 0.40625 6.49978C0.40625 9.86286 3.13693 12.5935 6.5 12.5935C7.3964 12.5935 8.24897 12.399 9.01605 12.0508C9.1209 12.003 9.16503 11.8776 9.11325 11.7747L8.74905 11.0475C8.70038 10.9507 8.58428 10.9091 8.48523 10.9531C7.87889 11.2238 7.20777 11.3744 6.5 11.3744C3.80521 11.3744 1.6254 9.19457 1.6254 6.49978C1.6254 5.4864 1.93558 4.5485 2.46408 3.7683L3.10678 4.40941C3.23491 4.53675 3.45306 4.44602 3.45312 4.26539V2.03143C3.45353 1.91863 3.36201 1.82707 3.24921 1.8275H1.01483ZM6.4996 3.24938C4.70708 3.24938 3.2504 4.70766 3.2504 6.50018C3.2504 8.2927 4.70708 9.74938 6.4996 9.74938C8.29212 9.74938 9.7504 8.2927 9.7504 6.50018C9.7504 4.70766 8.29212 3.24938 6.4996 3.24938ZM6.49879 4.0607C6.60038 4.0607 6.70191 4.12831 6.70191 4.2638V4.69426C7.16426 4.78868 7.51481 5.19961 7.51481 5.68886C7.52095 5.96577 7.10242 5.96577 7.10856 5.68886C7.10856 5.34991 6.83854 5.08027 6.49958 5.08027C6.16063 5.08027 5.891 5.34991 5.891 5.68886C5.891 6.02781 6.16063 6.29785 6.49958 6.29785C7.05809 6.29785 7.51481 6.75575 7.51481 7.31426C7.51481 7.80352 7.16426 8.21484 6.70191 8.30926V8.73573C6.70191 9.00663 6.29567 9.00663 6.29567 8.73573V8.30886C5.83411 8.21383 5.48475 7.80296 5.48475 7.31426C5.49062 7.04937 5.88486 7.04937 5.891 7.31426C5.891 7.65321 6.16063 7.92325 6.49958 7.92325C6.83854 7.92325 7.10856 7.65321 7.10856 7.31426C7.10856 6.97531 6.83854 6.70408 6.49958 6.70408C5.94107 6.70408 5.48475 6.24737 5.48475 5.68886C5.48475 5.20016 5.83411 4.78969 6.29567 4.69466V4.2638C6.29567 4.12835 6.3972 4.0607 6.49879 4.0607Z" fill="white"/>
</g>
<defs>
<clipPath id="clip0_615_8013">
<rect width="13" height="13" fill="white"/>
</clipPath>
</defs>
</svg>
