<svg width="13" height="13" viewBox="0 0 13 13" fill="none" xmlns="http://www.w3.org/2000/svg">
<path d="M3.25065 1.625H9.75065C10.9423 1.625 11.9173 2.6 11.9173 3.79167C11.9173 4.7125 11.3757 5.47083 10.5632 5.79583V3.79167C10.5632 3.575 10.4548 3.35833 10.3465 3.19583C10.2382 3.03333 9.96732 2.97917 9.75065 2.97917H3.25065C3.03398 2.97917 2.81732 3.0875 2.65482 3.19583C2.49232 3.30417 2.43815 3.575 2.43815 3.79167V5.79583C1.62565 5.47083 1.08398 4.7125 1.08398 3.79167C1.08398 2.6 2.05898 1.625 3.25065 1.625Z" fill="white"/>
<path fill-rule="evenodd" clip-rule="evenodd" d="M9.75 3.79163V10.2916C9.75 10.8875 9.2625 11.375 8.66667 11.375H4.33333C3.7375 11.375 3.25 10.8875 3.25 10.2916V3.79163H9.75ZM5.6875 7.85413L6.06667 8.23329V5.95829C6.06667 5.74163 6.22917 5.52496 6.5 5.52496C6.77083 5.52496 6.93333 5.68746 6.93333 5.95829V8.23329L7.3125 7.85413C7.475 7.69163 7.74583 7.69163 7.90833 7.85413C8.07083 8.01663 8.07083 8.28746 7.90833 8.44996L7.20417 9.15413C6.825 9.53329 6.22917 9.53329 5.85 9.15413L5.14583 8.44996C4.98333 8.28746 4.98333 8.01663 5.14583 7.85413C5.30833 7.69163 5.525 7.69163 5.6875 7.85413Z" fill="white"/>
</svg>
